<?xml version="1.0" encoding="UTF-8" standalone="no"?>
<!-- Created with Inkscape (http://www.inkscape.org/) -->

<svg
   xmlns:dc="http://purl.org/dc/elements/1.1/"
   xmlns:cc="http://creativecommons.org/ns#"
   xmlns:rdf="http://www.w3.org/1999/02/22-rdf-syntax-ns#"
   xmlns:svg="http://www.w3.org/2000/svg"
   xmlns="http://www.w3.org/2000/svg"
   xmlns:sodipodi="http://sodipodi.sourceforge.net/DTD/sodipodi-0.dtd"
   xmlns:inkscape="http://www.inkscape.org/namespaces/inkscape"
   width="600mm"
   height="300mm"
   viewBox="0 0 2125.9843 1062.9921"
   id="svg2"
   version="1.1"
   inkscape:version="0.91 r13725"
   sodipodi:docname="Pack_Petit_Bot_6.svg">
  <sodipodi:namedview
     inkscape:guide-bbox="true"
     showguides="true"
     id="base"
     pagecolor="#ffffff"
     bordercolor="#666666"
     borderopacity="1.0"
     inkscape:pageopacity="0.0"
     inkscape:pageshadow="2"
     inkscape:zoom="0.28"
     inkscape:cx="1154.1199"
     inkscape:cy="762.31592"
     inkscape:document-units="mm"
     inkscape:current-layer="svg2"
     showgrid="false"
     inkscape:window-width="1366"
     inkscape:window-height="705"
     inkscape:window-x="-8"
     inkscape:window-y="-8"
     inkscape:window-maximized="1" />
  <defs
     id="defs4" />
  <metadata
     id="metadata7">
    <rdf:RDF>
      <cc:Work
         rdf:about="">
        <dc:format>image/svg+xml</dc:format>
        <dc:type
           rdf:resource="http://purl.org/dc/dcmitype/StillImage" />
        <dc:title />
      </cc:Work>
    </rdf:RDF>
  </metadata>
  <g
     inkscape:label="Calque 1"
     inkscape:groupmode="layer"
     id="layer1"
     transform="translate(0,10.629923)" />
  <g
     inkscape:label="newlayer"
     inkscape:groupmode="layer"
     id="g5612" />
  <g
     id="g6114"
     inkscape:groupmode="layer"
     inkscape:label="newlayer" />
  <path
     inkscape:connector-curvature="0"
     inkscape:label="part"
     style="fill:none;stroke:#ff0000;stroke-width:0.35433075;stroke-miterlimit:4.16735935;stroke-dasharray:none;stroke-opacity:1"
     d="M 1058.0722,322.94173 1058.0722,298.74219 1067.6391,298.74219 1067.6391,273.44621 1058.0722,273.44621 1058.0722,246.94549 1067.6391,246.94549 1067.6391,221.64949 1058.0722,221.64949 1058.0722,195.14878 1067.6391,195.14878 1067.6391,169.85278 1058.0722,169.85278 1058.0722,143.35207 1067.6391,143.35207 1067.6391,118.05608 1058.0722,118.05608 1058.0722,91.555365 1067.6391,91.555365 1067.6391,66.25938 1058.0722,66.25938 1058.0722,40.05984"
     id="path5630"
     sodipodi:nodetypes="cccccccccccccccccccccc" />
  <path
     sodipodi:nodetypes="cccccccccccccccccccccc"
     inkscape:connector-curvature="0"
     inkscape:label="part"
     style="fill:none;stroke:#ff0000;stroke-width:0.35433075;stroke-miterlimit:4.16735935;stroke-dasharray:none;stroke-opacity:1"
     d="M 1058.0722,40.05984 1084.2717,40.05984 1084.2717,49.62677 1109.5677,49.62677 1109.5677,40.05984 1136.0684,40.05984 1136.0684,49.62677 1161.3644,49.62677 1161.3644,40.086627 1187.8651,40.05984 1187.8651,49.62677 1213.1611,49.62677 1213.1611,40.05984 1239.6618,40.086627 1239.6618,49.62677 1264.9578,49.62677 1264.9578,40.05984 1291.4585,40.05984 1291.4585,49.62677 1316.7545,49.62677 1316.7545,40.05984 1340.9541,40.05984"
     id="path5632" />
  <path
     inkscape:connector-curvature="0"
     inkscape:label="part"
     style="fill:none;stroke:#ff0000;stroke-width:0.35433075;stroke-miterlimit:4.16735935;stroke-dasharray:none;stroke-opacity:1"
     d="M 1342.9541,42.05984 1342.9541,66.25938 1333.3871,66.25938 1333.3871,91.555365 1342.9541,91.555365 1342.9541,118.05608 1333.3871,118.05608 1333.3871,143.35207 1342.9541,143.35207 1342.9541,169.85278 1333.3871,169.85278 1333.3871,195.14878 1342.9541,195.14878 1342.9541,221.64949 1333.3871,221.64949 1333.3871,246.94549 1342.9541,246.94549 1342.9541,273.44621 1333.3871,273.44621 1333.3871,298.74219 1342.9541,298.74219 1342.9541,324.94173"
     id="path5634"
     sodipodi:nodetypes="cccccccccccccccccccccc" />
  <path
     inkscape:connector-curvature="0"
     inkscape:label="part"
     style="fill:none;stroke:#ff0000;stroke-width:0.35433075;stroke-miterlimit:4.16735935;stroke-dasharray:none;stroke-opacity:1"
     d="M 1342.9541,324.94173 1316.7545,324.94173 1316.7545,315.3748 1291.4585,315.3748 1291.4585,324.94173 1264.9578,324.94173 1264.9578,315.3748 1239.6618,315.3748 1239.6618,324.94173 1213.1611,324.94173 1213.1611,315.3748 1187.8651,315.3748 1187.8651,324.94173 1161.3644,324.94173 1161.3644,315.3748 1136.0684,315.3748 1136.0684,324.94173 1109.5677,324.94173 1109.5677,315.3748 1084.2717,315.3748 1084.2717,324.94173 1060.0722,324.94173"
     id="path5636"
     sodipodi:nodetypes="cccccccccccccccccccccc" />
  <path
     inkscape:label="part"
     style="fill:none;stroke:#ff0000;stroke-width:0.35433075;stroke-miterlimit:4.16735935;stroke-dasharray:none;stroke-opacity:1"
     d="M 1474.7376,49.62668 1492.9167,49.62668 1492.9167,40.05975 1523.5663,40.05975 1523.5663,49.62668 1530.9275,49.62668 1532.7678,49.62668 1534.6081,49.62668 1536.4484,49.62668 1538.2887,49.62668 1540.1291,49.62668 1541.9694,49.62668 1543.8097,49.62668 1545.65,49.62668 1553.0112,49.62668 1553.0112,40.05975 1583.6608,40.05975 1583.6608,49.62668 1603.8399,49.62668"
     id="path5638"
     inkscape:connector-curvature="0"
     sodipodi:nodetypes="ccccccccccccccccccc" />
  <path
     inkscape:label="part"
     style="fill:none;stroke:#ff0000;stroke-width:0.35433075;stroke-miterlimit:4.16735935;stroke-dasharray:none;stroke-opacity:1"
     d="M 1603.8399,49.62668 1603.8399,65.65693 1613.4069,65.65693 1613.4069,92.157635 1603.8399,92.157635 1603.8399,117.45362 1613.4069,117.45362 1613.4069,143.95434 1603.8399,143.95434 1603.8399,169.25033 1619.0705,169.25033 C 1619.0705,169.25033 1622.0568,173.25033 1626.3011,173.25033 1630.5453,173.25033 1633.5316,169.25033 1633.5316,169.25033 L 1648.7622,169.25033 1648.7622,195.75105 1633.5316,195.75105 C 1633.5316,195.75105 1630.5453,191.75105 1626.3011,191.75105 1622.0568,191.75105 1619.0705,195.75105 1619.0705,195.75105 L 1603.8399,195.75105 1603.8399,221.04705 1613.4069,221.04705 1613.4069,247.54777 1603.8399,247.54777 1603.8399,272.84375 1613.4069,272.84375 1613.4069,299.34447 1603.8399,299.34447 1603.8399,313.37472"
     id="path5640"
     inkscape:connector-curvature="0"
     sodipodi:nodetypes="ccccccccccczcccczccccccccccc" />
  <path
     inkscape:label="part"
     style="fill:none;stroke:#ff0000;stroke-width:0.35433075;stroke-miterlimit:4.16735935;stroke-dasharray:none;stroke-opacity:1"
     d="M 1601.8399,315.37472 1583.6608,315.37472 1583.6608,324.94164 1553.0112,324.94164 1553.0112,315.37472 1523.5663,315.37472 1523.5663,324.94164 1492.9167,324.94164 1492.9167,315.37472 1472.7376,315.37472"
     id="path5642"
     inkscape:connector-curvature="0"
     sodipodi:nodetypes="cccccccccc" />
  <path
     inkscape:label="part"
     style="fill:none;stroke:#ff0000;stroke-width:0.35433075;stroke-miterlimit:4.16735935;stroke-dasharray:none;stroke-opacity:1"
     d="M 1472.7376,315.37472 1472.7376,299.34447 1463.1706,299.34447 1463.1706,272.84375 1472.7376,272.84375 1472.7376,247.54777 1463.1706,247.54777 1463.1706,221.04705 1472.7376,221.04705 1472.7376,195.75105 1457.507,195.75105 C 1457.507,195.75105 1453.0308,191.75105 1450.2764,191.75105 1447.522,191.75105 1443.0459,195.75105 1443.0459,195.75105 L 1427.8153,195.75105 1427.8153,169.25033 1443.0459,169.25033 C 1443.0459,169.25033 1447.522,173.25033 1450.2764,173.25033 1453.0308,173.25033 1457.507,169.25033 1457.507,169.25033 L 1472.7376,169.25033 1472.7376,143.95434 1463.1706,143.95434 1463.1706,117.45362 1472.7376,117.45362 1472.7376,92.157635 1463.1706,92.157635 1463.1706,65.65693 1472.7376,65.65693 1472.7376,51.62668"
     id="path5644"
     inkscape:connector-curvature="0"
     sodipodi:nodetypes="ccccccccccczcccczccccccccccc" />
  <path
     inkscape:label="part"
     style="fill:none;stroke:#ff0000;stroke-width:0.35433075;stroke-miterlimit:4.16735935;stroke-dasharray:none;stroke-opacity:1"
     d="M 1005.7812,40.059755 1005.7812,65.656935 1015.3481,65.656935 1015.3481,92.157645 1005.7812,92.157645 1005.7812,117.45363 1015.3481,117.45363 1015.3481,143.95435 1005.7812,143.95435 1005.7812,169.25034 1015.3481,169.25034 1015.3481,195.75106 1005.7812,195.75106 1005.7812,221.04705 1015.3481,221.04705 1015.3481,247.54777 1005.7812,247.54777 1005.7812,272.84377 1015.3481,272.84377 1015.3481,299.34447 1005.7812,299.34447 1005.7812,322.94166"
     id="path5654"
     inkscape:connector-curvature="0"
     sodipodi:nodetypes="cccccccccccccccccccccc" />
  <path
     inkscape:label="part"
     style="fill:none;stroke:#ff0000;stroke-width:0.35433075;stroke-miterlimit:4.16735935;stroke-dasharray:none;stroke-opacity:1"
     d="M 1003.7812,324.94166 984.99965,324.94166 984.99965,315.37472 955.55474,315.37472 955.55474,324.94166 924.90513,324.94166 924.90513,315.37472 895.46025,315.37472 895.46025,324.94166 874.67875,324.94166"
     id="path5656"
     inkscape:connector-curvature="0"
     sodipodi:nodetypes="cccccccccc" />
  <path
     inkscape:label="part"
     style="fill:none;stroke:#ff0000;stroke-width:0.35433075;stroke-miterlimit:4.16735935;stroke-dasharray:none;stroke-opacity:1"
     d="M 874.67875,324.94166 874.67875,299.34447 865.11182,299.34447 865.11182,272.84377 874.67875,272.84377 874.67875,247.54777 865.11182,247.54777 865.11182,221.04705 874.67875,221.04705 874.67875,195.75106 865.11182,195.75106 865.11182,169.25034 874.67875,169.25034 874.67875,143.95435 865.11182,143.95435 865.11182,117.45363 874.67875,117.45363 874.67875,92.157645 865.11182,92.157645 865.11182,65.656935 874.67875,65.656935 874.67875,42.059755"
     id="path5658"
     inkscape:connector-curvature="0"
     sodipodi:nodetypes="cccccccccccccccccccccc" />
  <path
     inkscape:label="part"
     style="fill:none;stroke:#ff0000;stroke-width:0.35433075;stroke-miterlimit:4.16735935;stroke-dasharray:none;stroke-opacity:1"
     d="M 876.67875,40.059755 895.46025,40.059755 895.46025,49.626685 924.90513,49.626685 924.90513,40.059755 955.55474,40.059755 955.55474,49.626685 984.99965,49.626685 984.99965,40.059755 1005.7812,40.059755"
     id="path5660"
     inkscape:connector-curvature="0"
     sodipodi:nodetypes="cccccccccc" />
  <path
     id="path5555-4-0"
     d="M 906.88307,60.219184 A 2.6574804,2.6574804 0 0 1 909.54128,62.877394 2.6574804,2.6574804 0 0 1 906.88307,65.535604 2.6574804,2.6574804 0 0 1 904.22487,62.877394 2.6574804,2.6574804 0 0 1 906.88307,60.219184 Z"
     style="fill:none;stroke:#ff0000;stroke-width:0.35433075;stroke-miterlimit:4.16735935;stroke-dasharray:none;stroke-opacity:1"
     inkscape:connector-curvature="0" />
  <path
     id="path5553-2-5"
     d="M 927.78932,70.850059 927.78932,150.57466 925.17604,150.57466 922.56276,150.57466 919.94948,150.57466 917.3362,150.57466 914.72291,150.57466 912.10963,150.57466 909.49635,150.57466 906.88307,150.57466 904.26979,150.57466 901.65651,150.57466 899.04323,150.57466 896.42995,150.57466 893.81666,150.57466 891.20338,150.57466 888.5901,150.57466 M 885.97682,150.57466 885.97682,70.850059 888.5901,70.850059 891.20338,70.850059 893.81666,70.850059 896.42995,70.850059 899.04323,70.850059 901.65651,70.850059 904.26979,70.850059 906.88307,70.850059 909.49635,70.850059 912.10963,70.850059 914.72291,70.850059 917.3362,70.850059 919.94948,70.850059 922.56276,70.850059 925.17604,70.850059"
     style="fill:none;stroke:#ff0000;stroke-width:0.35433075;stroke-miterlimit:4.16735935;stroke-dasharray:none;stroke-opacity:1"
     inkscape:connector-curvature="0"
     sodipodi:nodetypes="cccccccccccccccccccccccccccccccccc" />
  <path
     id="path4781-1-4"
     d="M 906.88307,155.88911 A 2.6574807,2.6574807 0 0 1 909.54128,158.54732 2.6574807,2.6574807 0 0 1 906.88307,161.20357 2.6574807,2.6574807 0 0 1 904.22487,158.54732 2.6574807,2.6574807 0 0 1 906.88307,155.88911 Z"
     style="fill:none;stroke:#ff0000;stroke-width:0.35433075;stroke-miterlimit:4.16735935;stroke-dasharray:none;stroke-opacity:1"
     inkscape:connector-curvature="0" />
  <path
     inkscape:connector-curvature="0"
     id="path5829"
     d="M 719.83978,40.059755 719.83978,65.656935 710.27285,65.656935 710.27285,92.157645 719.83978,92.157645 719.83978,117.45363 710.27285,117.45363 710.27285,143.95435 719.83978,143.95435 719.83978,169.25034 710.27285,169.25034 710.27285,195.75106 719.83978,195.75106 719.83978,221.04705 710.27285,221.04705 710.27285,247.54777 719.83978,247.54777 719.83978,272.84377 710.27285,272.84377 710.27285,299.34447 719.83978,299.34447 719.83978,322.94166"
     style="fill:none;stroke:#ff0000;stroke-width:0.35433075;stroke-miterlimit:4.16735935;stroke-dasharray:none;stroke-opacity:1"
     inkscape:label="part"
     sodipodi:nodetypes="cccccccccccccccccccccc" />
  <path
     inkscape:connector-curvature="0"
     id="path5831"
     d="M 721.83978,324.94166 740.62127,324.94166 740.62127,315.37472 770.06615,315.37472 770.06615,324.94166 800.71576,324.94166 800.71576,315.37472 830.16064,315.37472 830.16064,324.94166 850.94214,324.94166"
     style="fill:none;stroke:#ff0000;stroke-width:0.35433075;stroke-miterlimit:4.16735935;stroke-dasharray:none;stroke-opacity:1"
     inkscape:label="part"
     sodipodi:nodetypes="cccccccccc" />
  <path
     inkscape:connector-curvature="0"
     id="path5833"
     d="M 850.94214,324.94166 850.94214,299.34447 860.50907,299.34447 860.50907,272.84377 850.94214,272.84377 850.94214,247.54777 860.50907,247.54777 860.50907,221.04705 850.94214,221.04705 850.94214,195.75106 860.50907,195.75106 860.50907,169.25034 850.94214,169.25034 850.94214,143.95435 860.50907,143.95435 860.50907,117.45363 850.94214,117.45363 850.94214,92.157645 860.50907,92.157645 860.50907,65.656935 850.94214,65.656935 850.94214,42.059755"
     style="fill:none;stroke:#ff0000;stroke-width:0.35433075;stroke-miterlimit:4.16735935;stroke-dasharray:none;stroke-opacity:1"
     inkscape:label="part"
     sodipodi:nodetypes="cccccccccccccccccccccc" />
  <path
     inkscape:connector-curvature="0"
     id="path5835"
     d="M 848.94214,40.059755 830.16064,40.059755 830.16064,49.626685 800.71576,49.626685 800.71576,40.059755 770.06615,40.059755 770.06615,49.626685 740.62127,49.626685 740.62127,40.059755 719.83978,40.059755"
     style="fill:none;stroke:#ff0000;stroke-width:0.35433075;stroke-miterlimit:4.16735935;stroke-dasharray:none;stroke-opacity:1"
     inkscape:label="part"
     sodipodi:nodetypes="cccccccccc" />
  <path
     inkscape:connector-curvature="0"
     style="fill:none;stroke:#ff0000;stroke-width:0.35433075;stroke-miterlimit:4.16735935;stroke-dasharray:none;stroke-opacity:1"
     d="M 818.73782,60.219184 A 2.6574804,2.6574804 0 0 0 816.07961,62.877394 2.6574804,2.6574804 0 0 0 818.73782,65.535604 2.6574804,2.6574804 0 0 0 821.39602,62.877394 2.6574804,2.6574804 0 0 0 818.73782,60.219184 Z"
     id="path5839" />
  <path
     inkscape:connector-curvature="0"
     style="fill:none;stroke:#ff0000;stroke-width:0.35433075;stroke-miterlimit:4.16735935;stroke-dasharray:none;stroke-opacity:1"
     d="M 797.83156,70.850059 797.83156,150.57466 800.44484,150.57466 803.05812,150.57466 805.67141,150.57466 808.28469,150.57466 810.89797,150.57466 813.51125,150.57466 816.12453,150.57466 818.73781,150.57466 821.3511,150.57466 823.96438,150.57466 826.57766,150.57466 829.19094,150.57466 831.80422,150.57466 834.41751,150.57466 837.03079,150.57466 M 839.64407,150.57466 839.64407,70.850059 837.03079,70.850059 834.41751,70.850059 831.80422,70.850059 829.19094,70.850059 826.57766,70.850059 823.96438,70.850059 821.3511,70.850059 818.73781,70.850059 816.12453,70.850059 813.51125,70.850059 810.89797,70.850059 808.28469,70.850059 805.67141,70.850059 803.05812,70.850059 800.44484,70.850059"
     id="path5841"
     sodipodi:nodetypes="cccccccccccccccccccccccccccccccccc" />
  <path
     inkscape:connector-curvature="0"
     style="fill:none;stroke:#ff0000;stroke-width:0.35433075;stroke-miterlimit:4.16735935;stroke-dasharray:none;stroke-opacity:1"
     d="M 818.73782,155.88911 A 2.6574807,2.6574807 0 0 0 816.07961,158.54732 2.6574807,2.6574807 0 0 0 818.73782,161.20357 2.6574807,2.6574807 0 0 0 821.39602,158.54732 2.6574807,2.6574807 0 0 0 818.73782,155.88911 Z"
     id="path5843" />
  <g
     id="g5966">
    <path
       inkscape:label="part"
       style="fill:none;stroke:#ff0000;stroke-width:0.35433075;stroke-miterlimit:4.16735935;stroke-dasharray:none;stroke-opacity:1"
       d="M 356.88917,14.193615 405.20722,14.193615 405.20722,23.760545 452.83433,23.760545 452.83433,14.193615 501.3827,14.193615 501.3827,23.760545 549.00981,23.760545 549.00981,14.193615 597.55818,14.193615 597.55818,23.760545 645.18529,23.760545 645.18529,14.193615 693.50334,14.193615"
       id="path6132"
       inkscape:connector-curvature="0" />
    <path
       inkscape:label="part"
       style="fill:none;stroke:#ff0000;stroke-width:0.35433075;stroke-miterlimit:4.16735935;stroke-dasharray:none;stroke-opacity:1"
       d="M 693.50334,14.193615 693.50334,62.511665 683.93641,62.511665 683.93641,110.13877 693.50334,110.13877 693.50334,158.68714 683.93641,158.68714 683.93641,206.31425 693.50334,206.31425 693.50334,254.86262 683.93641,254.86262 683.93641,302.48973 693.50334,302.48973 693.50334,350.80779"
       id="path6134"
       inkscape:connector-curvature="0" />
    <path
       inkscape:label="part"
       style="fill:none;stroke:#ff0000;stroke-width:0.35433075;stroke-miterlimit:4.16735935;stroke-dasharray:none;stroke-opacity:1"
       d="M 693.50334,350.80779 645.18529,350.80779 645.18529,341.24085 597.55818,341.24085 597.55818,350.80779 549.00981,350.80779 549.00981,341.24085 501.3827,341.24085 501.3827,350.80779 452.83433,350.80779 452.83433,341.24085 405.20722,341.24085 405.20722,350.80779 356.88917,350.80779"
       id="path6136"
       inkscape:connector-curvature="0" />
    <path
       sodipodi:nodetypes="cccccccccccc"
       inkscape:label="part"
       style="fill:none;stroke:#ff0000;stroke-width:0.35433075;stroke-miterlimit:4.16735935;stroke-dasharray:none;stroke-opacity:1"
       d="M 356.88917,302.48973 366.4561,302.48973 366.4561,254.86262 356.88917,254.86262 M 356.88917,206.31425 366.4561,206.31425 366.4561,158.68714 356.88917,158.68714 M 356.88917,110.13877 366.4561,110.13877 366.4561,62.511665 356.88917,62.511665"
       id="path6138"
       inkscape:connector-curvature="0" />
  </g>
  <path
     inkscape:connector-curvature="0"
     id="path6148"
     d="M 19.274972,14.193615 67.593072,14.193615 67.593072,23.760545 115.22017,23.760545 115.22017,14.193615 163.76857,14.193615 163.76857,23.760545 211.39567,23.760545 211.39567,14.193615 259.94407,14.193615 259.94407,23.760545 307.57117,23.760545 307.57117,14.193615 355.88917,14.193615"
     style="fill:none;stroke:#ff0000;stroke-width:0.35433075;stroke-miterlimit:4.16735935;stroke-dasharray:none;stroke-opacity:1"
     inkscape:label="part" />
  <path
     inkscape:connector-curvature="0"
     id="path6150"
     d="M 355.88917,14.193615 355.88917,62.511665 346.32227,62.511665 346.32227,110.13877 355.88917,110.13877 355.88917,158.68714 346.32227,158.68714 346.32227,206.31425 355.88917,206.31425 355.88917,254.86262 346.32227,254.86262 346.32227,302.48973 355.88917,302.48973 355.88917,350.80779"
     style="fill:none;stroke:#ff0000;stroke-width:0.35433075;stroke-miterlimit:4.16735935;stroke-dasharray:none;stroke-opacity:1"
     inkscape:label="part" />
  <path
     inkscape:connector-curvature="0"
     id="path6152"
     d="M 355.88917,350.80779 307.57117,350.80779 307.57117,341.24085 259.94407,341.24085 259.94407,350.80779 211.39567,350.80779 211.39567,341.24085 163.76857,341.24085 163.76857,350.80779 115.22017,350.80779 115.22017,341.24085 67.593072,341.24085 67.593072,350.80779 19.274972,350.80779"
     style="fill:none;stroke:#ff0000;stroke-width:0.35433075;stroke-miterlimit:4.16735935;stroke-dasharray:none;stroke-opacity:1"
     inkscape:label="part" />
  <path
     inkscape:connector-curvature="0"
     id="path6154"
     d="M 19.274972,350.80779 19.274972,302.48973 28.841972,302.48973 28.841972,254.86262 19.274972,254.86262 19.274972,206.31425 28.841972,206.31425 28.841972,158.68714 19.274972,158.68714 19.274972,110.13877 28.841972,110.13877 28.841972,62.511665 19.274972,62.511665 19.274972,14.193615"
     style="fill:none;stroke:#ff0000;stroke-width:0.35433075;stroke-miterlimit:4.16735935;stroke-dasharray:none;stroke-opacity:1"
     inkscape:label="part" />
  <path
     inkscape:connector-curvature="0"
     id="path6124"
     d="M 1716.9127,23.760545 1755.2032,23.760545 1755.2032,14.193615 1803.7516,14.193615 1803.7516,23.760545 1851.3787,23.760545 1851.3787,14.193615 1899.9271,14.193615 1899.9271,23.760545 1947.5542,23.760545 1947.5542,14.193615 1996.1026,14.193615 1996.1026,23.760545 2034.393,23.760545"
     style="fill:none;stroke:#ff0000;stroke-width:0.35433075;stroke-miterlimit:4.16735935;stroke-dasharray:none;stroke-opacity:1"
     inkscape:label="part" />
  <path
     inkscape:connector-curvature="0"
     id="path6126"
     d="M 2034.393,23.760545 2034.393,62.051035 2043.96,62.051035 2043.96,110.5994 2034.393,110.5994 2034.393,158.22651 2043.96,158.22651 2043.96,206.77488 2034.393,206.77488 2034.393,254.40199 2043.96,254.40199 2043.96,302.95036 2034.393,302.95036 2034.393,341.24085"
     style="fill:none;stroke:#ff0000;stroke-width:0.35433075;stroke-miterlimit:4.16735935;stroke-dasharray:none;stroke-opacity:1"
     inkscape:label="part" />
  <path
     inkscape:connector-curvature="0"
     id="path6128"
     d="M 2034.393,341.24085 1996.1026,341.24085 1996.1026,350.80779 1947.5542,350.80779 1947.5542,341.24085 1899.9271,341.24085 1899.9271,350.80779 1851.3787,350.80779 1851.3787,341.24085 1803.7516,341.24085 1803.7516,350.80779 1755.2032,350.80779 1755.2032,341.24085 1716.9127,341.24085"
     style="fill:none;stroke:#ff0000;stroke-width:0.35433075;stroke-miterlimit:4.16735935;stroke-dasharray:none;stroke-opacity:1"
     inkscape:label="part" />
  <path
     sodipodi:nodetypes="cccccccccccccc"
     inkscape:connector-curvature="0"
     id="path6130"
     d="M 1716.9127,341.24085 1716.9127,302.95036 1707.3458,302.95036 M 1707.3458,254.40199 1716.9127,254.40199 1716.9127,206.77488 1707.3458,206.77488 M 1707.3458,158.22651 1716.9127,158.22651 1716.9127,110.5994 1707.3458,110.5994 M 1707.3458,62.051035 1716.9127,62.051035 1716.9127,23.760545"
     style="fill:none;stroke:#ff0000;stroke-width:0.35433075;stroke-miterlimit:4.16735935;stroke-dasharray:none;stroke-opacity:1"
     inkscape:label="part" />
  <path
     inkscape:connector-curvature="0"
     id="path6116"
     d="M 704.07027,350.80779 704.07027,302.95036 694.50334,302.95036 694.50334,254.40199 704.07027,254.40199 704.07027,206.77488 694.50334,206.77488 694.50334,158.22651 704.07027,158.22651 704.07027,110.5994 694.50334,110.5994 694.50334,62.051035 704.07027,62.051035 704.07027,14.193615"
     style="fill:none;stroke:#ff0000;stroke-width:0.35433075;stroke-miterlimit:4.16735935;stroke-dasharray:none;stroke-opacity:1"
     inkscape:label="part" />
  <path
     inkscape:connector-curvature="0"
     id="path6118"
     d="M 704.07027,14.193615 742.82139,14.193615 742.82139,23.760545 790.4485,23.760545 790.4485,14.193615 838.99687,14.193615 838.99687,23.760545 886.62398,23.760545 886.62398,14.193615 935.17235,14.193615 935.17235,23.760545 982.79945,23.760545 982.79945,14.193615 1021.5506,14.193615"
     style="fill:none;stroke:#ff0000;stroke-width:0.35433075;stroke-miterlimit:4.16735935;stroke-dasharray:none;stroke-opacity:1"
     inkscape:label="part" />
  <path
     inkscape:connector-curvature="0"
     id="path6120"
     d="M 1021.5506,14.193615 1021.5506,62.051035 1031.1175,62.051035 1031.1175,110.5994 1021.5506,110.5994 1021.5506,158.22651 1031.1175,158.22651 1031.1175,206.77488 1021.5506,206.77488 1021.5506,254.40199 1031.1175,254.40199 1031.1175,302.95036 1021.5506,302.95036 1021.5506,350.80779"
     style="fill:none;stroke:#ff0000;stroke-width:0.35433075;stroke-miterlimit:4.16735935;stroke-dasharray:none;stroke-opacity:1"
     inkscape:label="part" />
  <path
     inkscape:connector-curvature="0"
     id="path6122"
     d="M 1021.5506,350.80779 982.79945,350.80779 982.79945,341.24085 935.17235,341.24085 935.17235,350.80779 886.62398,350.80779 886.62398,341.24085 838.99687,341.24085 838.99687,350.80779 790.4485,350.80779 790.4485,341.24085 742.82139,341.24085 742.82139,350.80779 704.07027,350.80779"
     style="fill:none;stroke:#ff0000;stroke-width:0.35433075;stroke-miterlimit:4.16735935;stroke-dasharray:none;stroke-opacity:1"
     inkscape:label="part" />
  <path
     inkscape:connector-curvature="0"
     id="path6140"
     d="M 1379.2986,23.760545 1417.5891,23.760545 1417.5891,14.193615 1466.1375,14.193615 1466.1375,23.760545 1513.7646,23.760545 1513.7646,14.193615 1562.313,14.193615 1562.313,23.760545 1609.9401,23.760545 1609.9401,14.193615 1658.4884,14.193615 1658.4884,23.760545 1696.7789,23.760545"
     style="fill:none;stroke:#ff0000;stroke-width:0.35433075;stroke-miterlimit:4.16735935;stroke-dasharray:none;stroke-opacity:1"
     inkscape:label="part" />
  <path
     inkscape:connector-curvature="0"
     id="path6142"
     d="M 1696.7789,23.760545 1696.7789,62.051035 1706.3458,62.051035 1706.3458,110.5994 1696.7789,110.5994 1696.7789,158.22651 1706.3458,158.22651 1706.3458,206.77488 1696.7789,206.77488 1696.7789,254.40199 1706.3458,254.40199 1706.3458,302.95036 1696.7789,302.95036 1696.7789,341.24085"
     style="fill:none;stroke:#ff0000;stroke-width:0.35433075;stroke-miterlimit:4.16735935;stroke-dasharray:none;stroke-opacity:1"
     inkscape:label="part" />
  <path
     inkscape:connector-curvature="0"
     id="path6144"
     d="M 1696.7789,341.24085 1658.4884,341.24085 1658.4884,350.80779 1609.9401,350.80779 1609.9401,341.24085 1562.313,341.24085 1562.313,350.80779 1513.7646,350.80779 1513.7646,341.24085 1466.1375,341.24085 1466.1375,350.80779 1417.5891,350.80779 1417.5891,341.24085 1379.2986,341.24085"
     style="fill:none;stroke:#ff0000;stroke-width:0.35433075;stroke-miterlimit:4.16735935;stroke-dasharray:none;stroke-opacity:1"
     inkscape:label="part" />
  <path
     sodipodi:nodetypes="cccccccccccccc"
     inkscape:connector-curvature="0"
     id="path6146"
     d="M 1379.2986,341.24085 1379.2986,302.95036 1369.7317,302.95036 M 1369.7317,254.40199 1379.2986,254.40199 1379.2986,206.77488 1369.7317,206.77488 M 1369.7317,158.22651 1379.2986,158.22651 1379.2986,110.5994 1369.7317,110.5994 M 1369.7317,62.051035 1379.2986,62.051035 1379.2986,23.760545"
     style="fill:none;stroke:#ff0000;stroke-width:0.35433075;stroke-miterlimit:4.16735935;stroke-dasharray:none;stroke-opacity:1"
     inkscape:label="part" />
  <path
     inkscape:connector-curvature="0"
     id="path6156"
     d="M 1359.1648,14.193615 1359.1648,62.051035 1368.7317,62.051035 1368.7317,110.5994 1359.1648,110.5994 1359.1648,158.22651 1368.7317,158.22651 1368.7317,206.77488 1359.1648,206.77488 1359.1648,254.40199 1368.7317,254.40199 1368.7317,302.95036 1359.1648,302.95036 1359.1648,350.80779"
     style="fill:none;stroke:#ff0000;stroke-width:0.35433075;stroke-miterlimit:4.16735935;stroke-dasharray:none;stroke-opacity:1"
     inkscape:label="part" />
  <path
     inkscape:connector-curvature="0"
     id="path6158"
     d="M 1359.1648,350.80779 1320.4136,350.80779 1320.4136,341.24085 1272.7865,341.24085 1272.7865,350.80779 1224.2382,350.80779 1224.2382,341.24085 1176.6111,341.24085 1176.6111,350.80779 1128.0627,350.80779 1128.0627,341.24085 1080.4356,341.24085 1080.4356,350.80779 1041.6845,350.80779"
     style="fill:none;stroke:#ff0000;stroke-width:0.35433075;stroke-miterlimit:4.16735935;stroke-dasharray:none;stroke-opacity:1"
     inkscape:label="part" />
  <path
     sodipodi:nodetypes="cccccccccccccc"
     inkscape:connector-curvature="0"
     id="path6160"
     d="M 1041.6845,350.80779 1041.6845,302.95036 1032.1175,302.95036 M 1032.1175,254.40199 1041.6845,254.40199 1041.6845,206.77488 1032.1175,206.77488 M 1032.1175,158.22651 1041.6845,158.22651 1041.6845,110.5994 1032.1175,110.5994 M 1032.1175,62.051035 1041.6845,62.051035 1041.6845,14.193615"
     style="fill:none;stroke:#ff0000;stroke-width:0.35433075;stroke-miterlimit:4.16735935;stroke-dasharray:none;stroke-opacity:1"
     inkscape:label="part" />
  <path
     inkscape:connector-curvature="0"
     id="path6162"
     d="M 1041.6845,14.193615 1080.4356,14.193615 1080.4356,23.760545 1128.0627,23.760545 1128.0627,14.193615 1176.6111,14.193615 1176.6111,23.760545 1224.2382,23.760545 1224.2382,14.193615 1272.7865,14.193615 1272.7865,23.760545 1320.4136,23.760545 1320.4136,14.193615 1359.1648,14.193615"
     style="fill:none;stroke:#ff0000;stroke-width:0.35433075;stroke-miterlimit:4.16735935;stroke-dasharray:none;stroke-opacity:1"
     inkscape:label="part" />
  <path
     sodipodi:nodetypes="cccccccccccccccccccccc"
     inkscape:connector-curvature="0"
     inkscape:label="part"
     style="fill:none;stroke:#ff0000;stroke-width:0.35433075;stroke-miterlimit:4.16735935;stroke-dasharray:none;stroke-opacity:1"
     d="M 45.132646,40.05975 71.332172,40.05975 71.332172,49.62668 96.628172,49.62668 96.628172,40.05975 123.12888,40.05975 123.12888,49.62668 148.42487,49.62668 148.42487,40.05975 174.92559,40.05975 174.92559,49.62668 200.22158,49.62668 200.22158,40.05975 226.7223,40.05975 226.7223,49.62668 252.01829,49.62668 252.01829,40.05975 278.519,40.05975 278.519,49.62668 303.815,49.62668 303.815,40.05975 328.01453,40.05975"
     id="path5646" />
  <path
     sodipodi:nodetypes="cccccccccccccccccccccc"
     inkscape:connector-curvature="0"
     inkscape:label="part"
     style="fill:none;stroke:#ff0000;stroke-width:0.35433075;stroke-miterlimit:4.16735935;stroke-dasharray:none;stroke-opacity:1"
     d="M 330.01453,42.05975 330.01453,66.25929 320.4476,66.25929 320.4476,91.555275 330.01453,91.555275 330.01453,118.05599 320.4476,118.05599 320.4476,143.35198 330.03138,143.35198 330.01453,169.85269 320.4476,169.85269 320.4476,195.14869 330.01453,195.14869 330.03138,221.6494 320.4476,221.6494 320.4476,246.9454 330.01453,246.9454 330.01453,273.44612 320.4476,273.44612 320.4476,298.7421 330.01453,298.7421 330.01453,324.94164"
     id="path5648" />
  <path
     sodipodi:nodetypes="cccccccccccccccccccccc"
     inkscape:connector-curvature="0"
     inkscape:label="part"
     style="fill:none;stroke:#ff0000;stroke-width:0.35433075;stroke-miterlimit:4.16735935;stroke-dasharray:none;stroke-opacity:1"
     d="M 330.01453,324.94164 303.815,324.94164 303.815,315.37471 278.519,315.37471 278.519,324.94164 252.01829,324.94164 252.01829,315.37471 226.7223,315.37471 226.7223,324.94164 200.22158,324.94164 200.22158,315.37471 174.92559,315.37471 174.92559,324.94164 148.42487,324.94164 148.42487,315.37471 123.12888,315.37471 123.12888,324.94164 96.628172,324.94164 96.628172,315.37471 71.332172,315.37471 71.332172,324.94164 47.132646,324.94164"
     id="path5650" />
  <path
     sodipodi:nodetypes="cccccccccccccccccccccc"
     inkscape:connector-curvature="0"
     inkscape:label="part"
     style="fill:none;stroke:#ff0000;stroke-width:0.35433075;stroke-miterlimit:4.16735935;stroke-dasharray:none;stroke-opacity:1"
     d="M 45.132646,322.94164 45.132646,298.7421 54.699576,298.7421 54.699576,273.44612 45.132646,273.44612 45.132646,246.9454 54.699576,246.9454 54.699576,221.6494 45.132646,221.6494 45.132646,195.14869 54.699576,195.14869 54.699576,169.85269 45.132646,169.85269 45.132646,143.35198 54.699576,143.35198 54.699576,118.05599 45.132646,118.05599 45.132646,91.555275 54.699576,91.555275 54.699576,66.25929 45.132646,66.25929 45.132646,40.05975"
     id="path5652" />
  <path
     sodipodi:nodetypes="cccccc"
     inkscape:connector-curvature="0"
     style="opacity:1;fill:none;fill-opacity:1;stroke:#ff0000;stroke-width:0.35433075;stroke-linecap:round;stroke-linejoin:round;stroke-miterlimit:4.16735935;stroke-dasharray:none;stroke-opacity:1"
     d="M 65.557822,58.484967 311.58934,58.484967 311.58934,304.50074 M 309.58934,306.51648 63.557822,306.51648 63.557822,60.500714"
     id="rect5792" />
  <path
     sodipodi:nodetypes="cccccccccccccccccccccccccccccccccc"
     style="opacity:1;fill:none;fill-opacity:1;stroke:#ff0000;stroke-width:0.35433075;stroke-linecap:round;stroke-linejoin:round;stroke-miterlimit:4.16735935;stroke-dasharray:none;stroke-opacity:1"
     d="M 94.778332,172.17127 C 99.669562,128.8759 133.85311,94.717975 177.15213,89.859205 M 177.15213,91.820455 177.15213,97.781705 177.15213,101.74296 177.15213,105.70421 177.15213,109.66546 177.15213,113.62671 177.15213,117.58798 177.15213,121.54923 177.15213,125.51047 177.15213,129.47172 177.15213,133.43298 177.15213,137.39423 177.15213,141.35548 177.15213,145.31673 177.15213,149.27799 177.15213,153.23924 C 168.31015,156.37406 161.35371,163.32967 158.21783,172.17127 L 154.25286,172.17127 150.28789,172.17127 146.32292,172.17127 142.35795,172.17127 138.39299,172.17127 134.42802,172.17127 130.46305,172.17127 126.49808,172.17127 122.53311,172.17127 118.56814,172.17127 114.60317,172.17127 110.63821,172.17127 106.67324,172.17127 102.70827,172.17127 96.743302,172.17127"
     id="path6855"
     inkscape:connector-curvature="0" />
  <path
     sodipodi:nodetypes="cccccccccccccccccccccccccccccccccc"
     style="opacity:1;fill:none;fill-opacity:1;stroke:#ff0000;stroke-width:0.35433075;stroke-linecap:round;stroke-linejoin:round;stroke-miterlimit:4.16735935;stroke-dasharray:none;stroke-opacity:1"
     d="M 197.90063,89.792915 C 241.19841,94.683555 275.35803,128.8697 280.21503,172.17127 M 278.25364,172.17127 272.29224,172.17127 268.33085,172.17127 264.36945,172.17127 260.40806,172.17127 256.44667,172.17127 252.48527,172.17127 248.52388,172.17127 244.56249,172.17127 240.60109,172.17127 236.6397,172.17127 232.6783,172.17127 228.71691,172.17127 224.75552,172.17127 220.79412,172.17127 216.83273,172.17127 C 213.69848,163.3284 206.74276,156.37102 197.90063,153.23466 L 197.90063,149.26955 197.90063,145.30444 197.90063,141.33933 197.90063,137.37422 197.90063,133.40911 197.90063,129.444 197.90063,125.47889 197.90063,121.51378 197.90063,117.54869 197.90063,113.58357 197.90063,109.61847 197.90063,105.65335 197.90063,101.68824 197.90063,97.723135 197.90063,91.758025"
     id="path6853"
     inkscape:connector-curvature="0" />
  <path
     inkscape:connector-curvature="0"
     style="opacity:1;fill:none;fill-opacity:1;stroke:#ff0000;stroke-width:0.35433075;stroke-linecap:round;stroke-linejoin:round;stroke-miterlimit:4.16735935;stroke-dasharray:none;stroke-opacity:1"
     d="M 187.57253,190.57976 A 8.0787447,8.0787447 0 0 1 179.49443,182.50165 8.0787447,8.0787447 0 0 1 187.57253,174.42154 8.0787447,8.0787447 0 0 1 195.65263,182.50165 8.0787447,8.0787447 0 0 1 187.57253,190.57976 Z"
     id="path6849" />
  <path
     sodipodi:nodetypes="cccccccccccccccccccccccccccccccccc"
     style="opacity:1;fill:none;fill-opacity:1;stroke:#ff0000;stroke-width:0.35433075;stroke-linecap:round;stroke-linejoin:round;stroke-miterlimit:4.16735935;stroke-dasharray:none;stroke-opacity:1"
     d="M 280.27913,192.92204 C 275.38651,236.2181 241.20075,270.37538 197.90063,275.2319 M 197.90063,273.2708 197.90063,267.30969 197.90063,263.34859 197.90063,259.38748 197.90063,255.42637 197.90063,251.46526 197.90063,247.50416 197.90063,243.54305 197.90063,239.58195 197.90063,235.62084 197.90063,231.65973 197.90063,227.69863 197.90063,223.73752 197.90063,219.77641 197.90063,215.81531 197.90063,211.8542 C 206.74443,208.72054 213.70278,201.7647 216.83963,192.92204 L 220.8046,192.92204 224.76957,192.92204 228.73454,192.92204 232.69951,192.92204 236.66447,192.92204 240.62944,192.92204 244.59441,192.92204 248.55938,192.92204 252.52435,192.92204 256.48932,192.92204 260.45429,192.92204 264.41925,192.92204 268.38422,192.92204 272.34919,192.92204 278.31416,192.92204"
     id="path6847"
     inkscape:connector-curvature="0" />
  <path
     sodipodi:nodetypes="cccccccccccccccccccccccccccccccccc"
     style="opacity:1;fill:none;fill-opacity:1;stroke:#ff0000;stroke-width:0.35433075;stroke-linecap:round;stroke-linejoin:round;stroke-miterlimit:4.16735935;stroke-dasharray:none;stroke-opacity:1"
     d="M 177.15213,275.29597 C 133.85761,270.40373 99.700852,236.22036 94.842332,192.92205 M 96.803442,192.92205 102.76454,192.92205 106.72565,192.92205 110.68675,192.92205 114.64786,192.92205 118.60897,192.92205 122.57007,192.92205 126.53118,192.92205 130.49229,192.92205 134.45339,192.92205 138.4145,192.92205 142.3756,192.92205 146.33671,192.92205 150.29782,192.92205 154.25892,192.92205 158.22003,192.92205 C 161.35482,201.76412 168.31046,208.72064 177.15213,211.85654 L 177.15213,215.8215 177.15213,219.78647 177.15213,223.75143 177.15213,227.71639 177.15213,231.68136 177.15213,235.64632 177.15213,239.61129 177.15213,243.57625 177.15213,247.54122 177.15213,251.50619 177.15213,255.47114 177.15213,259.4361 177.15213,263.40107 177.15213,267.36603 177.15213,273.331"
     id="path6845"
     inkscape:connector-curvature="0" />
  <path
     sodipodi:nodetypes="cssssssccsssssc"
     inkscape:connector-curvature="0"
     style="opacity:1;fill:none;fill-opacity:1;stroke:#ff0000;stroke-width:0.35433075;stroke-linecap:round;stroke-linejoin:round;stroke-miterlimit:4.16735935;stroke-dasharray:none;stroke-opacity:1"
     d="M 190.5252,298.11768 C 192.49567,298.01777 197.45202,297.71071 199.39525,297.51335 203.2817,297.11862 207.11125,296.5314 210.8742,295.76136 218.40011,294.22129 225.65962,291.94992 232.57527,289.02477 246.40657,283.17448 258.8624,274.70904 269.3229,264.24831 290.2439,243.32684 303.18361,214.42426 303.18313,182.49951 303.18265,150.57523 290.24271,121.67338 269.32183,100.75248 248.40094,79.831586 219.72232,66.891634 187.79804,66.89115 M 184.57422,66.846178 C 182.60374,66.946033 177.69762,67.290537 175.75439,67.487855 171.86792,67.882491 168.03836,68.46963 164.27539,69.239591 156.74946,70.77951 149.48989,73.050712 142.57417,75.975709 128.74274,81.825704 116.28673,90.290885 105.826,100.7514 84.904542,121.67242 71.964222,150.57474 71.964032,182.49951 71.963652,246.34999 123.72435,298.11079 187.57483,298.1103"
     id="path4834-0-2-7-5" />
  <path
     sodipodi:nodetypes="cccccccccccccccccccccccccccccccccc"
     style="opacity:1;fill:none;fill-opacity:1;stroke:#ff0000;stroke-width:0.35433075;stroke-linecap:round;stroke-linejoin:round;stroke-miterlimit:4.16735935;stroke-dasharray:none;stroke-opacity:1"
     d="M 1782.9463,172.19005 C 1787.8375,128.89468 1822.0211,94.736755 1865.3201,89.877985 M 1865.3201,91.839235 1865.3201,97.800485 1865.3201,101.76174 1865.3201,105.72299 1865.3201,109.68425 1865.3201,113.6455 1865.3201,117.60675 1865.3201,121.56801 1865.3201,125.52926 1865.3201,129.4905 1865.3201,133.45176 1865.3201,137.41301 1865.3201,141.37426 1865.3201,145.33551 1865.3201,149.29677 1865.3201,153.25802 C 1856.4781,156.39284 1849.5216,163.34845 1846.3858,172.19005 L 1842.4208,172.19005 1838.4558,172.19005 1834.4909,172.19005 1830.5259,172.19005 1826.5609,172.19005 1822.596,172.19005 1818.631,172.19005 1814.666,172.19005 1810.701,172.19005 1806.7361,172.19005 1802.7711,172.19005 1798.8061,172.19005 1794.8412,172.19005 1790.8762,172.19005 1784.9112,172.19005"
     id="path6855-8"
     inkscape:connector-curvature="0" />
  <path
     sodipodi:nodetypes="cccccccccccccccccccccccccccccccccc"
     style="opacity:1;fill:none;fill-opacity:1;stroke:#ff0000;stroke-width:0.35433075;stroke-linecap:round;stroke-linejoin:round;stroke-miterlimit:4.16735935;stroke-dasharray:none;stroke-opacity:1"
     d="M 1886.0686,89.811695 C 1929.3664,94.702335 1963.526,128.88848 1968.383,172.19005 M 1966.4216,172.19005 1960.4602,172.19005 1956.4988,172.19005 1952.5374,172.19005 1948.576,172.19005 1944.6146,172.19005 1940.6532,172.19005 1936.6918,172.19005 1932.7304,172.19005 1928.769,172.19005 1924.8076,172.19005 1920.8462,172.19005 1916.8848,172.19005 1912.9235,172.19005 1908.9621,172.19005 1905.0007,172.19005 C 1901.8664,163.34718 1894.9107,156.3898 1886.0686,153.25344 L 1886.0686,149.28833 1886.0686,145.32322 1886.0686,141.35811 1886.0686,137.393 1886.0686,133.42789 1886.0686,129.46278 1886.0686,125.49767 1886.0686,121.53257 1886.0686,117.56747 1886.0686,113.60235 1886.0686,109.63724 1886.0686,105.67213 1886.0686,101.70703 1886.0686,97.741915 1886.0686,91.776805"
     id="path6853-8"
     inkscape:connector-curvature="0" />
  <path
     inkscape:connector-curvature="0"
     style="opacity:1;fill:none;fill-opacity:1;stroke:#ff0000;stroke-width:0.35433075;stroke-linecap:round;stroke-linejoin:round;stroke-miterlimit:4.16735935;stroke-dasharray:none;stroke-opacity:1"
     d="M 1875.7405,190.59854 A 8.0787447,8.0787447 0 0 1 1867.6624,182.52043 8.0787447,8.0787447 0 0 1 1875.7405,174.44032 8.0787447,8.0787447 0 0 1 1883.8206,182.52043 8.0787447,8.0787447 0 0 1 1875.7405,190.59854 Z"
     id="path6849-3" />
  <path
     sodipodi:nodetypes="cccccccccccccccccccccccccccccccccc"
     style="opacity:1;fill:none;fill-opacity:1;stroke:#ff0000;stroke-width:0.35433075;stroke-linecap:round;stroke-linejoin:round;stroke-miterlimit:4.16735935;stroke-dasharray:none;stroke-opacity:1"
     d="M 1968.4471,192.94082 C 1963.5544,236.23688 1929.3687,270.39415 1886.0686,275.25068 M 1886.0686,273.28958 1886.0686,267.32847 1886.0686,263.36736 1886.0686,259.40627 1886.0686,255.44515 1886.0686,251.48404 1886.0686,247.52294 1886.0686,243.56183 1886.0686,239.60072 1886.0686,235.63962 1886.0686,231.67851 1886.0686,227.71741 1886.0686,223.7563 1886.0686,219.79519 1886.0686,215.83409 1886.0686,211.87298 C 1894.9124,208.73932 1901.8707,201.78348 1905.0076,192.94082 L 1908.9725,192.94082 1912.9375,192.94082 1916.9025,192.94082 1920.8675,192.94082 1924.8324,192.94082 1928.7974,192.94082 1932.7624,192.94082 1936.7273,192.94082 1940.6923,192.94082 1944.6573,192.94082 1948.6222,192.94082 1952.5872,192.94082 1956.5522,192.94082 1960.5171,192.94082 1966.4821,192.94082"
     id="path6847-3"
     inkscape:connector-curvature="0" />
  <path
     sodipodi:nodetypes="cccccccccccccccccccccccccccccccccc"
     style="opacity:1;fill:none;fill-opacity:1;stroke:#ff0000;stroke-width:0.35433075;stroke-linecap:round;stroke-linejoin:round;stroke-miterlimit:4.16735935;stroke-dasharray:none;stroke-opacity:1"
     d="M 1865.3201,275.31475 C 1822.0256,270.42251 1787.8688,236.23914 1783.0103,192.94083 M 1784.9714,192.94083 1790.9325,192.94083 1794.8936,192.94083 1798.8547,192.94083 1802.8158,192.94083 1806.7769,192.94083 1810.738,192.94083 1814.6991,192.94083 1818.6602,192.94083 1822.6213,192.94083 1826.5824,192.94083 1830.5435,192.94083 1834.5047,192.94083 1838.4658,192.94083 1842.4269,192.94083 1846.388,192.94083 C 1849.5228,201.7829 1856.4784,208.73942 1865.3201,211.87532 L 1865.3201,215.84028 1865.3201,219.80525 1865.3201,223.77021 1865.3201,227.73517 1865.3201,231.70014 1865.3201,235.6651 1865.3201,239.63007 1865.3201,243.59503 1865.3201,247.56 1865.3201,251.52496 1865.3201,255.48992 1865.3201,259.45488 1865.3201,263.41985 1865.3201,267.38481 1865.3201,273.34978"
     id="path6845-2"
     inkscape:connector-curvature="0" />
  <path
     sodipodi:nodetypes="cssssssccsssssc"
     inkscape:connector-curvature="0"
     style="opacity:1;fill:none;fill-opacity:1;stroke:#ff0000;stroke-width:0.35433075;stroke-linecap:round;stroke-linejoin:round;stroke-miterlimit:4.16735935;stroke-dasharray:none;stroke-opacity:1"
     d="M 1878.6931,298.13645 C 1880.6636,298.03656 1885.62,297.72948 1887.5632,297.53212 1891.4496,297.1374 1895.2792,296.55018 1899.0421,295.78014 1906.5681,294.24007 1913.8276,291.9687 1920.7432,289.04355 1934.5745,283.19326 1947.0303,274.72782 1957.4908,264.26709 1978.4118,243.34562 1991.3516,214.44304 1991.3511,182.51829 1991.3506,150.59401 1978.4107,121.69216 1957.4898,100.77127 1936.5689,79.850357 1907.8903,66.910405 1875.966,66.909921 M 1872.7422,66.864949 C 1870.7717,66.964804 1865.8656,67.309308 1863.9223,67.506626 1860.0359,67.901262 1856.2063,68.488401 1852.4433,69.258362 1844.9174,70.798281 1837.6578,73.069483 1830.7421,75.99448 1816.9107,81.844475 1804.4547,90.309665 1793.9939,100.77017 1773.0725,121.69119 1760.1322,150.59352 1760.132,182.51829 1760.1316,246.36877 1811.8923,298.12957 1875.7428,298.12908"
     id="path4834-0-2-7-5-3" />
  <g
     id="g4461"
     transform="matrix(0.70710678,-0.70710678,0.70710678,0.70710678,24.804877,424.88569)">
    <g
       transform="matrix(0,1,-1,0,707.78557,-274.94555)"
       id="g5887">
      <path
         inkscape:connector-curvature="0"
         inkscape:label="part"
         style="fill:none;stroke:#ff0000;stroke-width:0.35433075;stroke-miterlimit:4.16735935;stroke-dasharray:none;stroke-opacity:1"
         d="M 393.89508,49.626715 412.07421,49.626715 412.07421,40.059785 442.72382,40.059785 442.72382,49.626715 472.1687,49.626715 472.1687,40.059785 502.8183,40.059785 502.8183,49.626715 522.99744,49.626715"
         id="path5622"
         sodipodi:nodetypes="cccccccccc" />
      <path
         inkscape:connector-curvature="0"
         inkscape:label="part"
         style="fill:none;stroke:#ff0000;stroke-width:0.35433075;stroke-miterlimit:4.16735935;stroke-dasharray:none;stroke-opacity:1"
         d="M 522.99744,49.626715 522.99744,65.656965 532.56437,65.656965 532.56437,92.157675 522.99744,92.157675 522.99744,117.45367 532.56437,117.45367 532.56437,143.95438 522.99744,143.95438 522.99744,169.25037 532.56437,169.25037 532.56437,195.75109 522.99744,195.75109 522.99744,221.04708 532.56437,221.04708 532.56437,247.5478 522.99744,247.5478 522.99744,272.84379 532.56437,272.84379 532.56437,299.3445 522.99744,299.3445 522.99744,313.37475"
         id="path5624"
         sodipodi:nodetypes="cccccccccccccccccccccc" />
      <path
         inkscape:connector-curvature="0"
         inkscape:label="part"
         style="fill:none;stroke:#ff0000;stroke-width:0.35433075;stroke-miterlimit:4.16735935;stroke-dasharray:none;stroke-opacity:1"
         d="M 520.99744,315.37475 502.8183,315.37475 502.8183,324.94168 472.1687,324.94168 472.1687,315.37475 442.72382,315.37475 442.72382,324.94168 412.07421,324.94168 412.07421,315.37475 391.89508,315.37475"
         id="path5626"
         sodipodi:nodetypes="cccccccccc" />
      <path
         inkscape:connector-curvature="0"
         inkscape:label="part"
         style="fill:none;stroke:#ff0000;stroke-width:0.35433075;stroke-miterlimit:4.16735935;stroke-dasharray:none;stroke-opacity:1"
         d="M 391.89508,315.37475 391.89508,299.3445 382.32815,299.3445 382.32815,272.84379 391.89508,272.84379 391.89508,247.5478 382.32815,247.5478 382.32815,221.04708 391.89508,221.04708 391.89508,195.75109 382.32815,195.75109 382.32815,169.25037 391.89508,169.25037 391.89508,143.95438 382.32815,143.95438 382.32815,117.45367 391.89508,117.45367 391.89508,92.157675 382.32815,92.157675 382.32815,65.656965 391.89508,65.656965 391.89508,51.626715"
         id="path5628"
         sodipodi:nodetypes="cccccccccccccccccccccc" />
    </g>
    <g
       id="text4347"
       style="font-style:normal;font-weight:normal;font-size:40px;line-height:125%;font-family:sans-serif;letter-spacing:0px;word-spacing:0px;fill:#000000;fill-opacity:1;stroke:none;stroke-width:1px;stroke-linecap:butt;stroke-linejoin:miter;stroke-opacity:1">
      <path
         id="path4443"
         style="font-style:normal;font-variant:normal;font-weight:normal;font-stretch:normal;font-size:50.00000763px;font-family:Stencilia-A;-inkscape-font-specification:Stencilia-A"
         d="M 435.70161,177.27572 435.70161,173.97572 431.60161,173.97572 433.05161,163.77571 429.60161,163.77571 428.20161,173.97572 422.05161,173.97572 423.50161,163.77571 420.05161,163.77571 418.60161,173.97572 412.80161,173.97572 412.80161,177.32572 418.15161,177.32572 416.85161,186.87572 411.55161,186.87572 411.55161,190.22572 416.35161,190.22572 414.90161,200.42572 418.30161,200.42572 419.75161,190.22572 425.90161,190.22572 424.45161,200.42572 427.90161,200.42572 429.30161,190.22572 434.35161,190.22572 434.35161,186.87572 429.75161,186.87572 431.10161,177.27572 435.70161,177.27572 Z M 427.70161,177.27572 426.35161,186.87572 420.25161,186.87572 421.60161,177.27572 427.70161,177.27572 Z"
         inkscape:connector-curvature="0" />
      <path
         id="path4445"
         style="font-style:normal;font-variant:normal;font-weight:normal;font-stretch:normal;font-size:50.00000763px;font-family:Stencilia-A;-inkscape-font-specification:Stencilia-A"
         d="M 467.84849,176.87572 Q 467.84849,173.87572 467.29849,171.72572 466.74849,169.52572 465.54849,168.17572 464.34849,166.77572 462.39849,166.12571 460.44849,165.42571 457.64849,165.42571 L 452.44849,165.42571 452.44849,171.82572 452.74849,171.82572 Q 454.34849,171.82572 455.64849,171.82572 456.99849,171.82572 457.94849,172.27572 458.89849,172.72572 459.39849,173.87572 459.94849,174.97572 459.94849,177.17572 459.94849,178.77572 459.64849,179.72572 459.34849,180.67572 458.69849,181.17572 458.09849,181.67572 457.14849,181.82572 456.19849,181.92572 454.94849,181.92572 L 452.44849,181.92572 452.44849,188.27572 456.39849,188.27572 Q 459.34849,188.27572 461.49849,187.77572 463.69849,187.22572 465.09849,185.92572 466.49849,184.57572 467.14849,182.37572 467.84849,180.17572 467.84849,176.87572 Z M 448.64849,200.42572 448.64849,165.42571 440.79848,165.42571 440.79848,200.42572 448.64849,200.42572 Z"
         inkscape:connector-curvature="0" />
      <path
         id="path4447"
         style="font-style:normal;font-variant:normal;font-weight:normal;font-stretch:normal;font-size:50.00000763px;font-family:Stencilia-A;-inkscape-font-specification:Stencilia-A"
         d="M 497.61724,189.22572 497.61724,188.07572 Q 497.61724,184.92572 496.81724,182.17572 496.01724,179.37572 494.36724,177.32572 492.76724,175.22572 490.26724,174.02572 487.76724,172.82572 484.36724,172.82572 481.21724,172.82572 478.71724,173.97572 476.21724,175.07572 474.46724,177.02572 472.71724,178.97572 471.76724,181.62572 470.81724,184.22572 470.81724,187.27572 470.81724,190.37572 471.71724,192.97572 472.66724,195.52572 474.41724,197.37572 476.16724,199.17572 478.66724,200.17572 481.21724,201.17572 484.36724,201.17572 486.91724,201.17572 488.81724,200.67572 490.76724,200.17572 492.26724,199.17572 493.81724,198.12572 495.01724,196.52572 496.26724,194.87572 497.31724,192.62572 L 489.61724,192.07572 Q 488.76724,193.47572 487.56724,194.22572 486.41724,194.97572 484.76724,194.97572 483.01724,194.97572 481.81724,194.27572 480.61724,193.57572 479.86724,192.47572 479.11724,191.32572 478.76724,189.87572 478.46724,188.37572 478.46724,186.87572 478.46724,185.42572 478.71724,183.97572 479.01724,182.52572 479.66724,181.37572 480.36724,180.22572 481.51724,179.52572 482.66724,178.77572 484.36724,178.77572 486.71724,178.77572 487.96724,180.07572 489.21724,181.32572 489.66724,183.47572 L 482.71724,183.47572 Q 482.56724,184.17572 482.41724,184.92572 482.31724,185.62572 482.31724,186.32572 482.31724,187.07572 482.36724,187.82572 482.46724,188.52572 482.56724,189.22572 L 497.61724,189.22572 Z"
         inkscape:connector-curvature="0" />
      <path
         id="path4449"
         style="font-style:normal;font-variant:normal;font-weight:normal;font-stretch:normal;font-size:50.00000763px;font-family:Stencilia-A;-inkscape-font-specification:Stencilia-A"
         d="M 517.92428,179.37572 517.92428,173.52572 512.77428,173.52572 512.77428,167.82572 505.12428,171.82572 505.12428,173.52572 501.42428,173.52572 501.42428,179.37572 505.12428,179.37572 505.12428,193.17572 Q 505.12428,197.07572 506.82428,198.87572 508.52428,200.67572 512.47428,200.67572 513.82428,200.67572 515.17428,200.57572 516.52428,200.52572 517.82428,200.32572 L 517.82428,194.37572 Q 517.27428,194.47572 516.67428,194.52572 516.07428,194.57572 515.47428,194.57572 513.87428,194.57572 513.32428,193.72572 512.82428,192.87572 512.82428,191.42572 L 512.82428,179.37572 517.92428,179.37572 Z"
         inkscape:connector-curvature="0" />
      <path
         id="path4451"
         style="font-style:normal;font-variant:normal;font-weight:normal;font-stretch:normal;font-size:50.00000763px;font-family:Stencilia-A;-inkscape-font-specification:Stencilia-A"
         d="M 530.94615,172.22572 530.94615,165.42571 523.34615,165.42571 523.34615,172.22572 530.94615,172.22572 Z M 530.94615,200.42572 530.94615,173.57572 523.34615,173.57572 523.34615,200.42572 530.94615,200.42572 Z"
         inkscape:connector-curvature="0" />
      <path
         id="path4453"
         style="font-style:normal;font-variant:normal;font-weight:normal;font-stretch:normal;font-size:50.00000763px;font-family:Stencilia-A;-inkscape-font-specification:Stencilia-A"
         d="M 552.78756,179.37572 552.78756,173.52572 547.63756,173.52572 547.63756,167.82572 539.98756,171.82572 539.98756,173.52572 536.28756,173.52572 536.28756,179.37572 539.98756,179.37572 539.98756,193.17572 Q 539.98756,197.07572 541.68756,198.87572 543.38756,200.67572 547.33756,200.67572 548.68756,200.67572 550.03756,200.57572 551.38756,200.52572 552.68756,200.32572 L 552.68756,194.37572 Q 552.13756,194.47572 551.53756,194.52572 550.93756,194.57572 550.33756,194.57572 548.73756,194.57572 548.18756,193.72572 547.68756,192.87572 547.68756,191.42572 L 547.68756,179.37572 552.78756,179.37572 Z"
         inkscape:connector-curvature="0" />
      <path
         id="path4455"
         style="font-style:normal;font-variant:normal;font-weight:normal;font-stretch:normal;font-size:50.00000763px;font-family:Stencilia-A;-inkscape-font-specification:Stencilia-A"
         d="M 585.90944,190.12572 Q 585.90944,186.97572 584.40944,184.97572 582.90944,182.92572 580.10944,181.62572 582.45944,180.27572 583.70944,178.67572 584.95944,177.02572 584.95944,174.17572 584.95944,171.07572 583.55944,169.32572 582.15944,167.52572 579.95944,166.67572 577.75944,165.77571 575.15944,165.57571 572.55944,165.32571 570.15944,165.32571 569.70944,165.32571 569.60944,165.32571 569.50944,165.32571 569.50944,165.37571 569.50944,165.37571 569.40944,165.37571 569.35944,165.37571 568.90944,165.37571 L 568.95944,171.97572 Q 569.50944,171.97572 569.65944,171.97572 569.80944,171.92572 569.85944,171.92572 569.95944,171.87572 570.10944,171.87572 570.25944,171.82572 570.80944,171.82572 571.80944,171.82572 572.90944,171.92572 574.05944,172.02572 575.00944,172.42572 576.00944,172.82572 576.60944,173.57572 577.25944,174.32572 577.25944,175.57572 577.25944,176.77572 576.60944,177.47572 575.95944,178.17572 574.95944,178.57572 574.00944,178.92572 572.90944,179.02572 571.80944,179.07572 570.90944,179.07572 570.35944,179.07572 570.15944,179.07572 570.00944,179.02572 569.90944,178.97572 569.85944,178.92572 569.65944,178.92572 569.50944,178.87572 568.95944,178.87572 L 568.95944,185.17572 Q 569.50944,185.17572 569.65944,185.17572 569.85944,185.12572 569.95944,185.12572 570.05944,185.07572 570.20944,185.07572 570.40944,185.02572 570.95944,185.02572 572.10944,185.02572 573.30944,185.17572 574.55944,185.27572 575.55944,185.72572 576.55944,186.17572 577.20944,187.07572 577.85944,187.92572 577.85944,189.37572 577.85944,190.92572 577.15944,191.87572 576.45944,192.77572 575.40944,193.27572 574.35944,193.77572 573.05944,193.92572 571.75944,194.02572 570.55944,194.02572 570.00944,194.02572 569.85944,194.02572 569.75944,193.97572 569.70944,193.97572 569.70944,193.92572 569.55944,193.92572 569.45944,193.87572 568.95944,193.87572 L 568.95944,200.42572 Q 569.60944,200.42572 569.85944,200.42572 570.15944,200.42572 570.30944,200.42572 570.50944,200.42572 570.75944,200.42572 571.05944,200.42572 571.70944,200.42572 573.35944,200.42572 575.05944,200.32572 576.75944,200.22572 578.35944,199.77572 579.95944,199.32572 581.35944,198.52572 582.75944,197.67572 583.85944,196.27572 584.85944,194.97572 585.35944,193.37572 585.90944,191.77572 585.90944,190.12572 Z M 565.20943,200.42572 565.20943,165.37571 557.30943,165.37571 557.30943,200.42572 565.20943,200.42572 Z"
         inkscape:connector-curvature="0" />
      <path
         id="path4457"
         style="font-style:normal;font-variant:normal;font-weight:normal;font-stretch:normal;font-size:50.00000763px;font-family:Stencilia-A;-inkscape-font-specification:Stencilia-A"
         d="M 618.7868,186.72572 Q 618.7868,180.57572 615.7868,176.87572 612.7868,173.12572 606.73679,172.77572 L 606.73679,178.87572 Q 608.38679,179.17572 609.2368,179.92572 610.0868,180.62572 610.4368,181.72572 610.8368,182.77572 610.8868,184.12572 610.9368,185.42572 610.9368,186.92572 610.9368,188.22572 610.8368,189.57572 610.7368,190.92572 610.3368,192.07572 609.9368,193.22572 609.0868,194.02572 608.23679,194.77572 606.73679,194.97572 L 606.73679,201.17572 Q 607.38679,201.07572 607.98679,201.02572 608.58679,200.97572 609.1868,200.87572 611.7368,200.37572 613.5368,199.07572 615.3868,197.72572 616.5368,195.82572 617.7368,193.92572 618.2368,191.57572 618.7868,189.22572 618.7868,186.72572 Z M 602.98679,201.22572 602.98679,195.02572 Q 601.28679,194.62572 600.38679,193.87572 599.53679,193.12572 599.13679,192.07572 598.78679,191.02572 598.73679,189.72572 598.73679,188.37572 598.73679,186.77572 598.73679,185.42572 598.83679,184.12572 598.93679,182.77572 599.33679,181.67572 599.73679,180.57572 600.58679,179.87572 601.48679,179.12572 602.98679,178.92572 L 602.98679,172.77572 Q 599.98679,172.87572 597.68679,174.02572 595.43679,175.12572 593.93679,177.07572 592.43679,178.97572 591.68679,181.52572 590.93679,184.07572 590.93679,187.02572 590.93679,189.52572 591.38679,191.87572 591.88679,194.17572 592.98679,196.07572 594.08679,197.97572 595.83679,199.27572 597.58679,200.57572 600.13679,201.02572 600.83679,201.12572 601.53679,201.12572 602.28679,201.17572 602.98679,201.22572 Z"
         inkscape:connector-curvature="0" />
      <path
         id="path4459"
         style="font-style:normal;font-variant:normal;font-weight:normal;font-stretch:normal;font-size:50.00000763px;font-family:Stencilia-A;-inkscape-font-specification:Stencilia-A"
         d="M 639.01804,179.37572 639.01804,173.52572 633.86804,173.52572 633.86804,167.82572 626.21804,171.82572 626.21804,173.52572 622.51804,173.52572 622.51804,179.37572 626.21804,179.37572 626.21804,193.17572 Q 626.21804,197.07572 627.91804,198.87572 629.61804,200.67572 633.56804,200.67572 634.91804,200.67572 636.26804,200.57572 637.61804,200.52572 638.91804,200.32572 L 638.91804,194.37572 Q 638.36804,194.47572 637.76804,194.52572 637.16804,194.57572 636.56804,194.57572 634.96804,194.57572 634.41804,193.72572 633.91804,192.87572 633.91804,191.42572 L 633.91804,179.37572 639.01804,179.37572 Z"
         inkscape:connector-curvature="0" />
    </g>
  </g>
</svg>
