solid OpenSCAD_Model
  facet normal -1 0 0
    outer loop
      vertex -0.5 0 2
      vertex -0.5 70 5
      vertex -0.5 70 2
    endloop
  endfacet
  facet normal -1 -0 0
    outer loop
      vertex -0.5 70 5
      vertex -0.5 0 2
      vertex -0.5 0 5
    endloop
  endfacet
  facet normal -0 0 1
    outer loop
      vertex 1.5 64.5 5
      vertex 3.5 6 5
      vertex 3.5 64.5 5
    endloop
  endfacet
  facet normal 0 0 1
    outer loop
      vertex 3.5 6 5
      vertex 1.5 64.5 5
      vertex 1.5 6 5
    endloop
  endfacet
  facet normal -0 0 1
    outer loop
      vertex 30 64.5 5
      vertex 32 6 5
      vertex 32 64.5 5
    endloop
  endfacet
  facet normal 0 0 1
    outer loop
      vertex 32 6 5
      vertex 30 64.5 5
      vertex 30 6 5
    endloop
  endfacet
  facet normal 0 0 1
    outer loop
      vertex 32 64.5 5
      vertex 49.5 70 5
      vertex 32 68.5 5
    endloop
  endfacet
  facet normal 0 0 1
    outer loop
      vertex 49.5 70 5
      vertex 30 68.5 5
      vertex 32 68.5 5
    endloop
  endfacet
  facet normal 0 0 1
    outer loop
      vertex 3.5 64.5 5
      vertex 30 64.5 5
      vertex 30 68.5 5
    endloop
  endfacet
  facet normal 0 0 1
    outer loop
      vertex 30 64.5 5
      vertex 3.5 64.5 5
      vertex 30 6 5
    endloop
  endfacet
  facet normal 0 0 1
    outer loop
      vertex 3.5 64.5 5
      vertex 30 68.5 5
      vertex 3.5 68.5 5
    endloop
  endfacet
  facet normal -0 0 1
    outer loop
      vertex -0.5 70 5
      vertex 30 68.5 5
      vertex 49.5 70 5
    endloop
  endfacet
  facet normal 0 0 1
    outer loop
      vertex 30 68.5 5
      vertex -0.5 70 5
      vertex 3.5 68.5 5
    endloop
  endfacet
  facet normal 0 0 1
    outer loop
      vertex -0.5 70 5
      vertex 1.5 64.5 5
      vertex 1.5 68.5 5
    endloop
  endfacet
  facet normal 0 0 1
    outer loop
      vertex 1.5 64.5 5
      vertex -0.5 70 5
      vertex 1.5 6 5
    endloop
  endfacet
  facet normal 0 0 1
    outer loop
      vertex -0.5 0 5
      vertex 1.5 6 5
      vertex -0.5 70 5
    endloop
  endfacet
  facet normal 0 0 1
    outer loop
      vertex 3.5 68.5 5
      vertex -0.5 70 5
      vertex 1.5 68.5 5
    endloop
  endfacet
  facet normal 0 0 1
    outer loop
      vertex 32 6 5
      vertex 49.5 70 5
      vertex 32 64.5 5
    endloop
  endfacet
  facet normal 0 0 1
    outer loop
      vertex 49.5 70 5
      vertex 32 6 5
      vertex 49.5 0 5
    endloop
  endfacet
  facet normal -0 0 1
    outer loop
      vertex 32 2 5
      vertex 49.5 0 5
      vertex 32 6 5
    endloop
  endfacet
  facet normal -0 0 1
    outer loop
      vertex 30 2 5
      vertex 49.5 0 5
      vertex 32 2 5
    endloop
  endfacet
  facet normal 0 0 1
    outer loop
      vertex 3.5 6 5
      vertex 30 6 5
      vertex 3.5 64.5 5
    endloop
  endfacet
  facet normal 0 0 1
    outer loop
      vertex 30 6 5
      vertex 3.5 6 5
      vertex 30 2 5
    endloop
  endfacet
  facet normal 0 0 1
    outer loop
      vertex 3.5 2 5
      vertex 30 2 5
      vertex 3.5 6 5
    endloop
  endfacet
  facet normal 0 0 1
    outer loop
      vertex -0.5 0 5
      vertex 30 2 5
      vertex 3.5 2 5
    endloop
  endfacet
  facet normal 0 0 1
    outer loop
      vertex -0.5 0 5
      vertex 3.5 2 5
      vertex 1.5 2 5
    endloop
  endfacet
  facet normal 0 0 1
    outer loop
      vertex 30 2 5
      vertex -0.5 0 5
      vertex 49.5 0 5
    endloop
  endfacet
  facet normal 0 0 1
    outer loop
      vertex 1.5 6 5
      vertex -0.5 0 5
      vertex 1.5 2 5
    endloop
  endfacet
  facet normal 1 -0 0
    outer loop
      vertex 49.5 0 5
      vertex 49.5 70 4
      vertex 49.5 70 5
    endloop
  endfacet
  facet normal 1 0 0
    outer loop
      vertex 49.5 70 4
      vertex 49.5 0 5
      vertex 49.5 0 4
    endloop
  endfacet
  facet normal 0 1 -0
    outer loop
      vertex 5 70 0
      vertex 0 70 2
      vertex 5 70 2
    endloop
  endfacet
  facet normal 0 1 0
    outer loop
      vertex 0 70 2
      vertex 5 70 0
      vertex 0 70 0
    endloop
  endfacet
  facet normal 0 1 -0
    outer loop
      vertex 60 70 0
      vertex 49.5 70 4
      vertex 60 70 4
    endloop
  endfacet
  facet normal 0 1 0
    outer loop
      vertex 28 70 0
      vertex 49.5 70 4
      vertex 60 70 0
    endloop
  endfacet
  facet normal 0 1 0
    outer loop
      vertex 49.5 70 4
      vertex 28 70 0
      vertex 28 70 2
    endloop
  endfacet
  facet normal 0 1 0
    outer loop
      vertex 28 70 2
      vertex 49.5 70 5
      vertex 49.5 70 4
    endloop
  endfacet
  facet normal 0 1 0
    outer loop
      vertex 49.5 70 5
      vertex 28 70 2
      vertex -0.5 70 5
    endloop
  endfacet
  facet normal 0 1 -0
    outer loop
      vertex 5 70 2
      vertex -0.5 70 5
      vertex 28 70 2
    endloop
  endfacet
  facet normal 0 1 -0
    outer loop
      vertex 0 70 2
      vertex -0.5 70 5
      vertex 5 70 2
    endloop
  endfacet
  facet normal 0 1 0
    outer loop
      vertex -0.5 70 5
      vertex 0 70 2
      vertex -0.5 70 2
    endloop
  endfacet
  facet normal 0 0 -1
    outer loop
      vertex -0.5 0 2
      vertex 0 70 2
      vertex 0 0 2
    endloop
  endfacet
  facet normal -0 0 -1
    outer loop
      vertex 0 70 2
      vertex -0.5 0 2
      vertex -0.5 70 2
    endloop
  endfacet
  facet normal 0 0 -1
    outer loop
      vertex 5 0 2
      vertex 28 16 2
      vertex 28 0 2
    endloop
  endfacet
  facet normal -0 0 -1
    outer loop
      vertex 28 16 2
      vertex 5 0 2
      vertex 5 16 2
    endloop
  endfacet
  facet normal 0 0 -1
    outer loop
      vertex 5 54 2
      vertex 28 70 2
      vertex 28 54 2
    endloop
  endfacet
  facet normal -0 0 -1
    outer loop
      vertex 28 70 2
      vertex 5 54 2
      vertex 5 70 2
    endloop
  endfacet
  facet normal 0 -1 0
    outer loop
      vertex 0 0 0
      vertex 5 0 2
      vertex 0 0 2
    endloop
  endfacet
  facet normal 0 -1 -0
    outer loop
      vertex 5 0 2
      vertex 0 0 0
      vertex 5 0 0
    endloop
  endfacet
  facet normal 0 -1 0
    outer loop
      vertex 28 0 2
      vertex 49.5 0 5
      vertex -0.5 0 5
    endloop
  endfacet
  facet normal 0 -1 0
    outer loop
      vertex 0 0 2
      vertex -0.5 0 5
      vertex -0.5 0 2
    endloop
  endfacet
  facet normal 0 -1 0
    outer loop
      vertex 5 0 2
      vertex -0.5 0 5
      vertex 0 0 2
    endloop
  endfacet
  facet normal 0 -1 0
    outer loop
      vertex 28 0 2
      vertex -0.5 0 5
      vertex 5 0 2
    endloop
  endfacet
  facet normal 0 -1 -0
    outer loop
      vertex 49.5 0 5
      vertex 28 0 2
      vertex 49.5 0 4
    endloop
  endfacet
  facet normal 0 -1 0
    outer loop
      vertex 28 0 0
      vertex 49.5 0 4
      vertex 28 0 2
    endloop
  endfacet
  facet normal 0 -1 -0
    outer loop
      vertex 49.5 0 4
      vertex 28 0 0
      vertex 60 0 0
    endloop
  endfacet
  facet normal 0 -1 0
    outer loop
      vertex 49.5 0 4
      vertex 60 0 0
      vertex 60 0 4
    endloop
  endfacet
  facet normal 0 0 -1
    outer loop
      vertex 1.5 64.5 0
      vertex 5 54 0
      vertex 1.5 6 0
    endloop
  endfacet
  facet normal 0 0 -1
    outer loop
      vertex 5 54 0
      vertex 1.5 64.5 0
      vertex 3.5 64.5 0
    endloop
  endfacet
  facet normal 0 0 -1
    outer loop
      vertex 3.5 6 0
      vertex 5 16 0
      vertex 5 0 0
    endloop
  endfacet
  facet normal 0 0 -1
    outer loop
      vertex 1.5 6 0
      vertex 5 16 0
      vertex 3.5 6 0
    endloop
  endfacet
  facet normal 0 0 -1
    outer loop
      vertex 3.5 6 0
      vertex 5 0 0
      vertex 3.5 2 0
    endloop
  endfacet
  facet normal 0 0 -1
    outer loop
      vertex 5 0 0
      vertex 1.5 2 0
      vertex 3.5 2 0
    endloop
  endfacet
  facet normal 0 0 -1
    outer loop
      vertex 0 0 0
      vertex 1.5 6 0
      vertex 1.5 2 0
    endloop
  endfacet
  facet normal 0 0 -1
    outer loop
      vertex 0 70 0
      vertex 1.5 6 0
      vertex 0 0 0
    endloop
  endfacet
  facet normal 0 0 -1
    outer loop
      vertex 1.5 6 0
      vertex 0 70 0
      vertex 1.5 64.5 0
    endloop
  endfacet
  facet normal 0 0 -1
    outer loop
      vertex 0 0 0
      vertex 1.5 2 0
      vertex 5 0 0
    endloop
  endfacet
  facet normal 0 0 -1
    outer loop
      vertex 5 16 0
      vertex 28 54 0
      vertex 28 16 0
    endloop
  endfacet
  facet normal -0 0 -1
    outer loop
      vertex 28 54 0
      vertex 5 16 0
      vertex 5 54 0
    endloop
  endfacet
  facet normal -0 0 -1
    outer loop
      vertex 5 16 0
      vertex 1.5 6 0
      vertex 5 54 0
    endloop
  endfacet
  facet normal 0 0 -1
    outer loop
      vertex 5 54 0
      vertex 3.5 64.5 0
      vertex 5 70 0
    endloop
  endfacet
  facet normal 0 0 -1
    outer loop
      vertex 3.5 68.5 0
      vertex 5 70 0
      vertex 3.5 64.5 0
    endloop
  endfacet
  facet normal 0 0 -1
    outer loop
      vertex 1.5 68.5 0
      vertex 5 70 0
      vertex 3.5 68.5 0
    endloop
  endfacet
  facet normal 0 0 -1
    outer loop
      vertex 1.5 68.5 0
      vertex 0 70 0
      vertex 5 70 0
    endloop
  endfacet
  facet normal 0 0 -1
    outer loop
      vertex 1.5 64.5 0
      vertex 0 70 0
      vertex 1.5 68.5 0
    endloop
  endfacet
  facet normal 0 0 -1
    outer loop
      vertex 28 16 0
      vertex 32 6 0
      vertex 30 6 0
    endloop
  endfacet
  facet normal 0 0 -1
    outer loop
      vertex 28 54 0
      vertex 32 6 0
      vertex 28 16 0
    endloop
  endfacet
  facet normal 0 0 -1
    outer loop
      vertex 99.2544 28.4424 0
      vertex 99.6689 30.1729 0
      vertex 99.3848 28.4111 0
    endloop
  endfacet
  facet normal 0 0 -1
    outer loop
      vertex 99.2544 28.4424 0
      vertex 97.9493 30.6494 0
      vertex 99.6689 30.1729 0
    endloop
  endfacet
  facet normal 0 0 -1
    outer loop
      vertex 97.5074 30.9373 0
      vertex 99.2544 28.4424 0
      vertex 98.0605 23.458 0
    endloop
  endfacet
  facet normal 0 0 -1
    outer loop
      vertex 99.2544 28.4424 0
      vertex 97.5074 30.9373 0
      vertex 97.9493 30.6494 0
    endloop
  endfacet
  facet normal 0 0 -1
    outer loop
      vertex 98.0605 23.458 0
      vertex 96.4993 31.6876 0
      vertex 97.5074 30.9373 0
    endloop
  endfacet
  facet normal 0 0 -1
    outer loop
      vertex 98.0605 23.458 0
      vertex 96.1148 32.1782 0
      vertex 96.4993 31.6876 0
    endloop
  endfacet
  facet normal 0 0 -1
    outer loop
      vertex 95.1768 17.1846 0
      vertex 96.1148 32.1782 0
      vertex 98.0605 23.458 0
    endloop
  endfacet
  facet normal -0 0 -1
    outer loop
      vertex 96.1148 32.1782 0
      vertex 95.1768 17.1846 0
      vertex 95.4969 33.1607 0
    endloop
  endfacet
  facet normal 0 0 -1
    outer loop
      vertex 91.127 11.5918 0
      vertex 95.4969 33.1607 0
      vertex 95.1768 17.1846 0
    endloop
  endfacet
  facet normal -0 0 -1
    outer loop
      vertex 95.4969 33.1607 0
      vertex 91.127 11.5918 0
      vertex 95.2808 33.7793 0
    endloop
  endfacet
  facet normal 0 0 -1
    outer loop
      vertex 60.3506 7.95605 0
      vertex 95.2808 33.7793 0
      vertex 91.127 11.5918 0
    endloop
  endfacet
  facet normal -0 0 -1
    outer loop
      vertex 95.2808 33.7793 0
      vertex 60.3506 7.95605 0
      vertex 95.0648 34.8886 0
    endloop
  endfacet
  facet normal -0 0 -1
    outer loop
      vertex 95.0648 34.8886 0
      vertex 60.3506 7.95605 0
      vertex 95.0602 35.5572 0
    endloop
  endfacet
  facet normal 0 0 -1
    outer loop
      vertex 60 70 0
      vertex 95.0602 35.5572 0
      vertex 60.3506 7.95605 0
    endloop
  endfacet
  facet normal 0 0 -1
    outer loop
      vertex 60.3506 7.95605 0
      vertex 91.127 11.5918 0
      vertex 86.0654 6.89355 0
    endloop
  endfacet
  facet normal 0 0 -1
    outer loop
      vertex 95.0602 35.5572 0
      vertex 90.9111 58.6494 0
      vertex 94.9785 53.1494 0
    endloop
  endfacet
  facet normal 0 0 -1
    outer loop
      vertex 61.7344 6.75684 0
      vertex 86.0654 6.89355 0
      vertex 80.1875 3.27148 0
    endloop
  endfacet
  facet normal 0 0 -1
    outer loop
      vertex 95.0602 35.5572 0
      vertex 85.8594 63.2617 0
      vertex 90.9111 58.6494 0
    endloop
  endfacet
  facet normal 0 0 -1
    outer loop
      vertex 61.7344 6.75684 0
      vertex 80.1875 3.27148 0
      vertex 73.7168 0.861328 0
    endloop
  endfacet
  facet normal 0 0 -1
    outer loop
      vertex 95.0602 35.5572 0
      vertex 80.0127 66.8135 0
      vertex 85.8594 63.2617 0
    endloop
  endfacet
  facet normal 0 0 -1
    outer loop
      vertex 62.25 5 0
      vertex 73.7168 0.861328 0
      vertex 66.9004 -0.243164 0
    endloop
  endfacet
  facet normal -0 0 -1
    outer loop
      vertex 86.0654 6.89355 0
      vertex 61.7344 6.75684 0
      vertex 60.3506 7.95605 0
    endloop
  endfacet
  facet normal 0 0 -1
    outer loop
      vertex 73.7168 0.861328 0
      vertex 62.25 5 0
      vertex 61.7344 6.75684 0
    endloop
  endfacet
  facet normal 0 0 -1
    outer loop
      vertex 66.9004 -0.243164 0
      vertex 61.7344 3.24316 0
      vertex 62.25 5 0
    endloop
  endfacet
  facet normal 0 0 -1
    outer loop
      vertex 60 0 0
      vertex 61.7344 3.24316 0
      vertex 66.9004 -0.243164 0
    endloop
  endfacet
  facet normal 0 0 -1
    outer loop
      vertex 61.7344 3.24316 0
      vertex 60 0 0
      vertex 60.3506 2.04395 0
    endloop
  endfacet
  facet normal 0 0 -1
    outer loop
      vertex 60 0 0
      vertex 58.5371 1.7832 0
      vertex 60.3506 2.04395 0
    endloop
  endfacet
  facet normal 0 0 -1
    outer loop
      vertex 60 0 0
      vertex 56.8721 2.54395 0
      vertex 58.5371 1.7832 0
    endloop
  endfacet
  facet normal 0 0 -1
    outer loop
      vertex 32 6 0
      vertex 55.8818 4.08398 0
      vertex 32 2 0
    endloop
  endfacet
  facet normal -0 0 -1
    outer loop
      vertex 56.8721 2.54395 0
      vertex 32 2 0
      vertex 55.8818 4.08398 0
    endloop
  endfacet
  facet normal 0 0 -1
    outer loop
      vertex 60 0 0
      vertex 32 2 0
      vertex 56.8721 2.54395 0
    endloop
  endfacet
  facet normal 0 0 -1
    outer loop
      vertex 28 0 0
      vertex 32 2 0
      vertex 60 0 0
    endloop
  endfacet
  facet normal 0 0 -1
    outer loop
      vertex 28 0 0
      vertex 30 6 0
      vertex 30 2 0
    endloop
  endfacet
  facet normal 0 0 -1
    outer loop
      vertex 32 6 0
      vertex 28 54 0
      vertex 32 64.5 0
    endloop
  endfacet
  facet normal -0 0 -1
    outer loop
      vertex 30 6 0
      vertex 28 0 0
      vertex 28 16 0
    endloop
  endfacet
  facet normal -0 0 -1
    outer loop
      vertex 32 2 0
      vertex 28 0 0
      vertex 30 2 0
    endloop
  endfacet
  facet normal 0 0 -1
    outer loop
      vertex 99.5938 40.3389 0
      vertex 99.182 41.9603 0
      vertex 99.2793 41.9854 0
    endloop
  endfacet
  facet normal 0 0 -1
    outer loop
      vertex 97.8816 39.8372 0
      vertex 99.182 41.9603 0
      vertex 99.5938 40.3389 0
    endloop
  endfacet
  facet normal 0 0 -1
    outer loop
      vertex 97.4472 39.5454 0
      vertex 99.182 41.9603 0
      vertex 97.8816 39.8372 0
    endloop
  endfacet
  facet normal -0 0 -1
    outer loop
      vertex 99.182 41.9603 0
      vertex 97.4472 39.5454 0
      vertex 97.9102 46.9688 0
    endloop
  endfacet
  facet normal 0 0 -1
    outer loop
      vertex 96.4459 38.7768 0
      vertex 97.9102 46.9688 0
      vertex 97.4472 39.5454 0
    endloop
  endfacet
  facet normal 0 0 -1
    outer loop
      vertex 96.0722 38.285 0
      vertex 97.9102 46.9688 0
      vertex 96.4459 38.7768 0
    endloop
  endfacet
  facet normal 0 0 -1
    outer loop
      vertex 94.9785 53.1494 0
      vertex 96.0722 38.285 0
      vertex 95.4674 37.2922 0
    endloop
  endfacet
  facet normal 0 0 -1
    outer loop
      vertex 94.9785 53.1494 0
      vertex 95.4674 37.2922 0
      vertex 95.2588 36.6651 0
    endloop
  endfacet
  facet normal 0 0 -1
    outer loop
      vertex 96.0722 38.285 0
      vertex 94.9785 53.1494 0
      vertex 97.9102 46.9688 0
    endloop
  endfacet
  facet normal 0 0 -1
    outer loop
      vertex 94.9785 53.1494 0
      vertex 95.2588 36.6651 0
      vertex 95.0602 35.5572 0
    endloop
  endfacet
  facet normal 0 0 -1
    outer loop
      vertex 95.0602 35.5572 0
      vertex 73.5918 69.1719 0
      vertex 80.0127 66.8135 0
    endloop
  endfacet
  facet normal 0 0 -1
    outer loop
      vertex 95.0602 35.5572 0
      vertex 66.8359 70.2471 0
      vertex 73.5918 69.1719 0
    endloop
  endfacet
  facet normal 0 0 -1
    outer loop
      vertex 95.0602 35.5572 0
      vertex 60 70 0
      vertex 66.8359 70.2471 0
    endloop
  endfacet
  facet normal 0 0 -1
    outer loop
      vertex 58.5371 8.2168 0
      vertex 60 70 0
      vertex 60.3506 7.95605 0
    endloop
  endfacet
  facet normal 0 0 -1
    outer loop
      vertex 32 64.5 0
      vertex 58.5371 8.2168 0
      vertex 56.8721 7.45605 0
    endloop
  endfacet
  facet normal 0 0 -1
    outer loop
      vertex 32 6 0
      vertex 56.8721 7.45605 0
      vertex 55.8818 5.91602 0
    endloop
  endfacet
  facet normal 0 0 -1
    outer loop
      vertex 55.8818 4.08398 0
      vertex 32 6 0
      vertex 55.8818 5.91602 0
    endloop
  endfacet
  facet normal -0 0 -1
    outer loop
      vertex 56.8721 7.45605 0
      vertex 32 6 0
      vertex 32 64.5 0
    endloop
  endfacet
  facet normal 0 0 -1
    outer loop
      vertex 58.5371 8.2168 0
      vertex 32 64.5 0
      vertex 60 70 0
    endloop
  endfacet
  facet normal 0 0 -1
    outer loop
      vertex 32 68.5 0
      vertex 60 70 0
      vertex 32 64.5 0
    endloop
  endfacet
  facet normal 0 0 -1
    outer loop
      vertex 28 70 0
      vertex 32 68.5 0
      vertex 30 68.5 0
    endloop
  endfacet
  facet normal -0 0 -1
    outer loop
      vertex 32 64.5 0
      vertex 28 54 0
      vertex 30 64.5 0
    endloop
  endfacet
  facet normal 0 0 -1
    outer loop
      vertex 28 70 0
      vertex 30 64.5 0
      vertex 28 54 0
    endloop
  endfacet
  facet normal 0 0 -1
    outer loop
      vertex 32 68.5 0
      vertex 28 70 0
      vertex 60 70 0
    endloop
  endfacet
  facet normal 0 0 -1
    outer loop
      vertex 30 64.5 0
      vertex 28 70 0
      vertex 30 68.5 0
    endloop
  endfacet
  facet normal 0 0 1
    outer loop
      vertex 73.7168 0.861328 4
      vertex 61.7344 6.75684 4
      vertex 62.25 5 4
    endloop
  endfacet
  facet normal 0 0 1
    outer loop
      vertex 88.9062 36.2656 4
      vertex 60.3506 7.95605 4
      vertex 61.7344 6.75684 4
    endloop
  endfacet
  facet normal 0 0 1
    outer loop
      vertex 58.5371 8.2168 4
      vertex 88.9062 36.2656 4
      vertex 60 70 4
    endloop
  endfacet
  facet normal 0 0 1
    outer loop
      vertex 88.9062 36.2656 4
      vertex 58.5371 8.2168 4
      vertex 60.3506 7.95605 4
    endloop
  endfacet
  facet normal -0 0 1
    outer loop
      vertex 49.5 70 4
      vertex 58.5371 8.2168 4
      vertex 60 70 4
    endloop
  endfacet
  facet normal 0 0 1
    outer loop
      vertex 58.5371 8.2168 4
      vertex 49.5 70 4
      vertex 56.8721 7.45605 4
    endloop
  endfacet
  facet normal 0 0 1
    outer loop
      vertex 56.8721 7.45605 4
      vertex 49.5 0 4
      vertex 55.8818 5.91602 4
    endloop
  endfacet
  facet normal 0 0 1
    outer loop
      vertex 49.5 0 4
      vertex 56.8721 7.45605 4
      vertex 49.5 70 4
    endloop
  endfacet
  facet normal 0 0 1
    outer loop
      vertex 97.9102 46.9688 4
      vertex 97.5732 41.5469 4
      vertex 99.182 41.9603 4
    endloop
  endfacet
  facet normal 0 0 1
    outer loop
      vertex 97.9102 46.9688 4
      vertex 96.0352 40.6875 4
      vertex 97.5732 41.5469 4
    endloop
  endfacet
  facet normal 0 0 1
    outer loop
      vertex 94.7686 39.4629 4
      vertex 97.9102 46.9688 4
      vertex 94.9785 53.1494 4
    endloop
  endfacet
  facet normal 0 0 1
    outer loop
      vertex 97.9102 46.9688 4
      vertex 94.7686 39.4629 4
      vertex 96.0352 40.6875 4
    endloop
  endfacet
  facet normal 0 0 1
    outer loop
      vertex 88.9062 36.2656 4
      vertex 94.7686 39.4629 4
      vertex 94.9785 53.1494 4
    endloop
  endfacet
  facet normal 0 0 1
    outer loop
      vertex 94.7686 39.4629 4
      vertex 88.9062 36.2656 4
      vertex 93.8574 37.9561 4
    endloop
  endfacet
  facet normal 0 0 1
    outer loop
      vertex 88.9062 36.2656 4
      vertex 94.9785 53.1494 4
      vertex 90.9111 58.6494 4
    endloop
  endfacet
  facet normal 0 0 1
    outer loop
      vertex 93.8574 37.9561 4
      vertex 88.9062 36.2656 4
      vertex 93.3613 36.2656 4
    endloop
  endfacet
  facet normal 0 0 1
    outer loop
      vertex 61.7344 6.75684 4
      vertex 88.9062 34 4
      vertex 88.9062 36.2656 4
    endloop
  endfacet
  facet normal 0 0 1
    outer loop
      vertex 85.8594 63.2617 4
      vertex 88.9062 36.2656 4
      vertex 90.9111 58.6494 4
    endloop
  endfacet
  facet normal 0 0 1
    outer loop
      vertex 80.0127 66.8135 4
      vertex 88.9062 36.2656 4
      vertex 85.8594 63.2617 4
    endloop
  endfacet
  facet normal 0 0 1
    outer loop
      vertex 61.7344 6.75684 4
      vertex 86.0654 6.89355 4
      vertex 88.9062 34 4
    endloop
  endfacet
  facet normal 0 0 1
    outer loop
      vertex 73.5918 69.1719 4
      vertex 88.9062 36.2656 4
      vertex 80.0127 66.8135 4
    endloop
  endfacet
  facet normal -0 0 1
    outer loop
      vertex 61.7344 6.75684 4
      vertex 80.1875 3.27148 4
      vertex 86.0654 6.89355 4
    endloop
  endfacet
  facet normal 0 0 1
    outer loop
      vertex 66.8359 70.2471 4
      vertex 88.9062 36.2656 4
      vertex 73.5918 69.1719 4
    endloop
  endfacet
  facet normal 0 0 1
    outer loop
      vertex 61.7344 6.75684 4
      vertex 73.7168 0.861328 4
      vertex 80.1875 3.27148 4
    endloop
  endfacet
  facet normal -0 0 1
    outer loop
      vertex 60 70 4
      vertex 88.9062 36.2656 4
      vertex 66.8359 70.2471 4
    endloop
  endfacet
  facet normal 0 0 1
    outer loop
      vertex 73.7168 0.861328 4
      vertex 62.25 5 4
      vertex 66.9004 -0.243164 4
    endloop
  endfacet
  facet normal -0 0 1
    outer loop
      vertex 61.7344 3.24316 4
      vertex 66.9004 -0.243164 4
      vertex 62.25 5 4
    endloop
  endfacet
  facet normal 0 0 1
    outer loop
      vertex 60 0 4
      vertex 61.7344 3.24316 4
      vertex 60.3506 2.04395 4
    endloop
  endfacet
  facet normal 0 0 1
    outer loop
      vertex 61.7344 3.24316 4
      vertex 60 0 4
      vertex 66.9004 -0.243164 4
    endloop
  endfacet
  facet normal -0 0 1
    outer loop
      vertex 58.5371 1.7832 4
      vertex 60 0 4
      vertex 60.3506 2.04395 4
    endloop
  endfacet
  facet normal 0 0 1
    outer loop
      vertex 56.8721 2.54395 4
      vertex 60 0 4
      vertex 58.5371 1.7832 4
    endloop
  endfacet
  facet normal 0 0 1
    outer loop
      vertex 56.8721 2.54395 4
      vertex 49.5 0 4
      vertex 60 0 4
    endloop
  endfacet
  facet normal 0 0 1
    outer loop
      vertex 55.8818 4.08398 4
      vertex 49.5 0 4
      vertex 56.8721 2.54395 4
    endloop
  endfacet
  facet normal 0 0 1
    outer loop
      vertex 55.8818 5.91602 4
      vertex 49.5 0 4
      vertex 55.8818 4.08398 4
    endloop
  endfacet
  facet normal 0 0 1
    outer loop
      vertex 97.6787 28.8203 4
      vertex 98.0605 23.458 4
      vertex 99.2544 28.4424 4
    endloop
  endfacet
  facet normal 0 0 1
    outer loop
      vertex 96.1338 29.6494 4
      vertex 98.0605 23.458 4
      vertex 97.6787 28.8203 4
    endloop
  endfacet
  facet normal 0 0 1
    outer loop
      vertex 94.8506 30.8447 4
      vertex 98.0605 23.458 4
      vertex 96.1338 29.6494 4
    endloop
  endfacet
  facet normal 0 0 1
    outer loop
      vertex 98.0605 23.458 4
      vertex 94.8506 30.8447 4
      vertex 95.1768 17.1846 4
    endloop
  endfacet
  facet normal 0 0 1
    outer loop
      vertex 88.9062 34 4
      vertex 94.8506 30.8447 4
      vertex 93.9141 32.3271 4
    endloop
  endfacet
  facet normal -0 0 1
    outer loop
      vertex 88.9062 34 4
      vertex 93.9141 32.3271 4
      vertex 93.3857 34 4
    endloop
  endfacet
  facet normal 0 0 1
    outer loop
      vertex 94.8506 30.8447 4
      vertex 88.9062 34 4
      vertex 95.1768 17.1846 4
    endloop
  endfacet
  facet normal 0 0 1
    outer loop
      vertex 95.1768 17.1846 4
      vertex 88.9062 34 4
      vertex 91.127 11.5918 4
    endloop
  endfacet
  facet normal 0 0 1
    outer loop
      vertex 91.127 11.5918 4
      vertex 88.9062 34 4
      vertex 86.0654 6.89355 4
    endloop
  endfacet
  facet normal -0 -0 1
    outer loop
      vertex 98.0498 30.584 4
      vertex 99.6689 30.1729 4
      vertex 97.9493 30.6494 4
    endloop
  endfacet
  facet normal 0 0 1
    outer loop
      vertex 99.5938 40.3389 4
      vertex 97.9814 39.9043 4
      vertex 97.8816 39.8372 4
    endloop
  endfacet
  facet normal 0 -0 1
    outer loop
      vertex 95.0602 35.5572 4
      vertex 95.2588 36.6651 4
      vertex 95.0566 36.0576 4
    endloop
  endfacet
  facet normal -0 -0 1
    outer loop
      vertex 95.0684 34.3877 4
      vertex 95.2808 33.7793 4
      vertex 95.0648 34.8886 4
    endloop
  endfacet
  facet normal 0 0 1
    outer loop
      vertex 96.0722 38.285 4
      vertex 95.584 37.6426 4
      vertex 95.4674 37.2922 4
    endloop
  endfacet
  facet normal -0 -0 1
    outer loop
      vertex 95.6191 32.8105 4
      vertex 96.1148 32.1782 4
      vertex 95.4969 33.1607 4
    endloop
  endfacet
  facet normal 0 0 1
    outer loop
      vertex 97.4472 39.5454 4
      vertex 96.5947 38.9727 4
      vertex 96.4459 38.7768 4
    endloop
  endfacet
  facet normal -0 -0 1
    outer loop
      vertex 96.6494 31.4961 4
      vertex 97.5074 30.9373 4
      vertex 96.4993 31.6876 4
    endloop
  endfacet
  facet normal 0.349046 -0.937106 0
    outer loop
      vertex 73.7168 0.861328 0
      vertex 80.1875 3.27148 4
      vertex 73.7168 0.861328 4
    endloop
  endfacet
  facet normal 0.349046 -0.937106 0
    outer loop
      vertex 80.1875 3.27148 4
      vertex 73.7168 0.861328 0
      vertex 80.1875 3.27148 0
    endloop
  endfacet
  facet normal 0.52461 -0.851342 0
    outer loop
      vertex 80.1875 3.27148 0
      vertex 86.0654 6.89355 4
      vertex 80.1875 3.27148 4
    endloop
  endfacet
  facet normal 0.52461 -0.851342 0
    outer loop
      vertex 86.0654 6.89355 4
      vertex 80.1875 3.27148 0
      vertex 86.0654 6.89355 0
    endloop
  endfacet
  facet normal 0.680315 -0.732919 0
    outer loop
      vertex 86.0654 6.89355 0
      vertex 91.127 11.5918 4
      vertex 86.0654 6.89355 4
    endloop
  endfacet
  facet normal 0.680315 -0.732919 0
    outer loop
      vertex 91.127 11.5918 4
      vertex 86.0654 6.89355 0
      vertex 91.127 11.5918 0
    endloop
  endfacet
  facet normal 0.809951 -0.586497 0
    outer loop
      vertex 91.127 11.5918 4
      vertex 95.1768 17.1846 0
      vertex 95.1768 17.1846 4
    endloop
  endfacet
  facet normal 0.809951 -0.586497 0
    outer loop
      vertex 95.1768 17.1846 0
      vertex 91.127 11.5918 4
      vertex 91.127 11.5918 0
    endloop
  endfacet
  facet normal 0.9086 -0.417667 0
    outer loop
      vertex 95.1768 17.1846 4
      vertex 98.0605 23.458 0
      vertex 98.0605 23.458 4
    endloop
  endfacet
  facet normal 0.9086 -0.417667 0
    outer loop
      vertex 98.0605 23.458 0
      vertex 95.1768 17.1846 4
      vertex 95.1768 17.1846 0
    endloop
  endfacet
  facet normal 0.972491 -0.232939 0
    outer loop
      vertex 98.0605 23.458 4
      vertex 99.2544 28.4424 0
      vertex 99.2544 28.4424 4
    endloop
  endfacet
  facet normal 0.972491 -0.232939 0
    outer loop
      vertex 99.2544 28.4424 0
      vertex 98.0605 23.458 4
      vertex 98.0605 23.458 0
    endloop
  endfacet
  facet normal 0.26708 0.963674 -0
    outer loop
      vertex 99.6689 30.1729 0
      vertex 97.9493 30.6494 4
      vertex 99.6689 30.1729 4
    endloop
  endfacet
  facet normal 0.26708 0.963674 0
    outer loop
      vertex 97.9493 30.6494 4
      vertex 99.6689 30.1729 0
      vertex 97.9493 30.6494 0
    endloop
  endfacet
  facet normal 0.597081 0.802181 -0
    outer loop
      vertex 97.5074 30.9373 0
      vertex 96.4993 31.6876 4
      vertex 97.5074 30.9373 4
    endloop
  endfacet
  facet normal 0.597081 0.802181 0
    outer loop
      vertex 96.4993 31.6876 4
      vertex 97.5074 30.9373 0
      vertex 96.4993 31.6876 0
    endloop
  endfacet
  facet normal 0.846505 0.53238 0
    outer loop
      vertex 96.1148 32.1782 4
      vertex 95.4969 33.1607 0
      vertex 95.4969 33.1607 4
    endloop
  endfacet
  facet normal 0.846505 0.53238 0
    outer loop
      vertex 95.4969 33.1607 0
      vertex 96.1148 32.1782 4
      vertex 96.1148 32.1782 0
    endloop
  endfacet
  facet normal 0.981569 0.19111 0
    outer loop
      vertex 95.2808 33.7793 4
      vertex 95.0648 34.8886 0
      vertex 95.0648 34.8886 4
    endloop
  endfacet
  facet normal 0.981569 0.19111 0
    outer loop
      vertex 95.0648 34.8886 0
      vertex 95.2808 33.7793 4
      vertex 95.2808 33.7793 0
    endloop
  endfacet
  facet normal 0.984308 -0.176461 0
    outer loop
      vertex 95.0602 35.5572 4
      vertex 95.2588 36.6651 0
      vertex 95.2588 36.6651 4
    endloop
  endfacet
  facet normal 0.984308 -0.176461 0
    outer loop
      vertex 95.2588 36.6651 0
      vertex 95.0602 35.5572 4
      vertex 95.0602 35.5572 0
    endloop
  endfacet
  facet normal 0.854027 -0.520229 0
    outer loop
      vertex 95.4674 37.2922 4
      vertex 96.0722 38.285 0
      vertex 96.0722 38.285 4
    endloop
  endfacet
  facet normal 0.854027 -0.520229 0
    outer loop
      vertex 96.0722 38.285 0
      vertex 95.4674 37.2922 4
      vertex 95.4674 37.2922 0
    endloop
  endfacet
  facet normal 0.608879 -0.793263 0
    outer loop
      vertex 96.4459 38.7768 0
      vertex 97.4472 39.5454 4
      vertex 96.4459 38.7768 4
    endloop
  endfacet
  facet normal 0.608879 -0.793263 0
    outer loop
      vertex 97.4472 39.5454 4
      vertex 96.4459 38.7768 0
      vertex 97.4472 39.5454 0
    endloop
  endfacet
  facet normal 0.28118 -0.959655 0
    outer loop
      vertex 97.8816 39.8372 0
      vertex 99.5938 40.3389 4
      vertex 97.8816 39.8372 4
    endloop
  endfacet
  facet normal 0.28118 -0.959655 0
    outer loop
      vertex 99.5938 40.3389 4
      vertex 97.8816 39.8372 0
      vertex 99.5938 40.3389 0
    endloop
  endfacet
  facet normal 0.969237 0.246128 0
    outer loop
      vertex 99.182 41.9603 4
      vertex 97.9102 46.9688 0
      vertex 97.9102 46.9688 4
    endloop
  endfacet
  facet normal 0.969237 0.246128 0
    outer loop
      vertex 97.9102 46.9688 0
      vertex 99.182 41.9603 4
      vertex 99.182 41.9603 0
    endloop
  endfacet
  facet normal 0.903514 0.428559 0
    outer loop
      vertex 97.9102 46.9688 4
      vertex 94.9785 53.1494 0
      vertex 94.9785 53.1494 4
    endloop
  endfacet
  facet normal 0.903514 0.428559 0
    outer loop
      vertex 94.9785 53.1494 0
      vertex 97.9102 46.9688 4
      vertex 97.9102 46.9688 0
    endloop
  endfacet
  facet normal 0.804025 0.594596 0
    outer loop
      vertex 94.9785 53.1494 4
      vertex 90.9111 58.6494 0
      vertex 90.9111 58.6494 4
    endloop
  endfacet
  facet normal 0.804025 0.594596 0
    outer loop
      vertex 90.9111 58.6494 0
      vertex 94.9785 53.1494 4
      vertex 94.9785 53.1494 0
    endloop
  endfacet
  facet normal 0.674256 0.738498 -0
    outer loop
      vertex 90.9111 58.6494 0
      vertex 85.8594 63.2617 4
      vertex 90.9111 58.6494 4
    endloop
  endfacet
  facet normal 0.674256 0.738498 0
    outer loop
      vertex 85.8594 63.2617 4
      vertex 90.9111 58.6494 0
      vertex 85.8594 63.2617 0
    endloop
  endfacet
  facet normal 0.51919 0.854659 -0
    outer loop
      vertex 85.8594 63.2617 0
      vertex 80.0127 66.8135 4
      vertex 85.8594 63.2617 4
    endloop
  endfacet
  facet normal 0.51919 0.854659 0
    outer loop
      vertex 80.0127 66.8135 4
      vertex 85.8594 63.2617 0
      vertex 80.0127 66.8135 0
    endloop
  endfacet
  facet normal 0.344779 0.938684 -0
    outer loop
      vertex 80.0127 66.8135 0
      vertex 73.5918 69.1719 4
      vertex 80.0127 66.8135 4
    endloop
  endfacet
  facet normal 0.344779 0.938684 0
    outer loop
      vertex 73.5918 69.1719 4
      vertex 80.0127 66.8135 0
      vertex 73.5918 69.1719 0
    endloop
  endfacet
  facet normal 0.157172 0.987571 -0
    outer loop
      vertex 73.5918 69.1719 0
      vertex 66.8359 70.2471 4
      vertex 73.5918 69.1719 4
    endloop
  endfacet
  facet normal 0.157172 0.987571 0
    outer loop
      vertex 66.8359 70.2471 4
      vertex 73.5918 69.1719 0
      vertex 66.8359 70.2471 0
    endloop
  endfacet
  facet normal -0.0361193 0.999347 0
    outer loop
      vertex 66.8359 70.2471 0
      vertex 60 70 4
      vertex 66.8359 70.2471 4
    endloop
  endfacet
  facet normal -0.0361193 0.999347 0
    outer loop
      vertex 60 70 4
      vertex 66.8359 70.2471 0
      vertex 60 70 0
    endloop
  endfacet
  facet normal -1 0 0
    outer loop
      vertex 28 54 0
      vertex 28 70 2
      vertex 28 70 0
    endloop
  endfacet
  facet normal -1 -0 0
    outer loop
      vertex 28 70 2
      vertex 28 54 0
      vertex 28 54 2
    endloop
  endfacet
  facet normal 0 1 -0
    outer loop
      vertex 28 54 0
      vertex 5 54 2
      vertex 28 54 2
    endloop
  endfacet
  facet normal 0 1 0
    outer loop
      vertex 5 54 2
      vertex 28 54 0
      vertex 5 54 0
    endloop
  endfacet
  facet normal 1 -0 0
    outer loop
      vertex 5 54 2
      vertex 5 70 0
      vertex 5 70 2
    endloop
  endfacet
  facet normal 1 0 0
    outer loop
      vertex 5 70 0
      vertex 5 54 2
      vertex 5 54 0
    endloop
  endfacet
  facet normal -1 0 0
    outer loop
      vertex 0 0 0
      vertex 0 70 2
      vertex 0 70 0
    endloop
  endfacet
  facet normal -1 -0 0
    outer loop
      vertex 0 70 2
      vertex 0 0 0
      vertex 0 0 2
    endloop
  endfacet
  facet normal 1 -0 0
    outer loop
      vertex 5 0 2
      vertex 5 16 0
      vertex 5 16 2
    endloop
  endfacet
  facet normal 1 0 0
    outer loop
      vertex 5 16 0
      vertex 5 0 2
      vertex 5 0 0
    endloop
  endfacet
  facet normal 0 -1 0
    outer loop
      vertex 5 16 0
      vertex 28 16 2
      vertex 5 16 2
    endloop
  endfacet
  facet normal 0 -1 -0
    outer loop
      vertex 28 16 2
      vertex 5 16 0
      vertex 28 16 0
    endloop
  endfacet
  facet normal -1 0 0
    outer loop
      vertex 28 0 0
      vertex 28 16 2
      vertex 28 16 0
    endloop
  endfacet
  facet normal -1 -0 0
    outer loop
      vertex 28 16 2
      vertex 28 0 0
      vertex 28 0 2
    endloop
  endfacet
  facet normal -0.0352173 -0.99938 0
    outer loop
      vertex 60 0 0
      vertex 66.9004 -0.243164 4
      vertex 60 0 4
    endloop
  endfacet
  facet normal -0.0352173 -0.99938 -0
    outer loop
      vertex 66.9004 -0.243164 4
      vertex 60 0 0
      vertex 66.9004 -0.243164 0
    endloop
  endfacet
  facet normal 0.159948 -0.987125 0
    outer loop
      vertex 66.9004 -0.243164 0
      vertex 73.7168 0.861328 4
      vertex 66.9004 -0.243164 4
    endloop
  endfacet
  facet normal 0.159948 -0.987125 0
    outer loop
      vertex 73.7168 0.861328 4
      vertex 66.9004 -0.243164 0
      vertex 73.7168 0.861328 0
    endloop
  endfacet
  facet normal 0.841126 0.540838 0
    outer loop
      vertex 56.8721 2.54395 4
      vertex 55.8818 4.08398 0
      vertex 55.8818 4.08398 4
    endloop
  endfacet
  facet normal 0.841126 0.540838 0
    outer loop
      vertex 55.8818 4.08398 0
      vertex 56.8721 2.54395 4
      vertex 56.8721 2.54395 0
    endloop
  endfacet
  facet normal 1 -0 0
    outer loop
      vertex 55.8818 4.08398 4
      vertex 55.8818 5.91602 0
      vertex 55.8818 5.91602 4
    endloop
  endfacet
  facet normal 1 0 0
    outer loop
      vertex 55.8818 5.91602 0
      vertex 55.8818 4.08398 4
      vertex 55.8818 4.08398 0
    endloop
  endfacet
  facet normal 0.841126 -0.540838 0
    outer loop
      vertex 55.8818 5.91602 4
      vertex 56.8721 7.45605 0
      vertex 56.8721 7.45605 4
    endloop
  endfacet
  facet normal 0.841126 -0.540838 0
    outer loop
      vertex 56.8721 7.45605 0
      vertex 55.8818 5.91602 4
      vertex 55.8818 5.91602 0
    endloop
  endfacet
  facet normal 0.415571 -0.909561 0
    outer loop
      vertex 56.8721 7.45605 0
      vertex 58.5371 8.2168 4
      vertex 56.8721 7.45605 4
    endloop
  endfacet
  facet normal 0.415571 -0.909561 0
    outer loop
      vertex 58.5371 8.2168 4
      vertex 56.8721 7.45605 0
      vertex 58.5371 8.2168 0
    endloop
  endfacet
  facet normal -0.142317 -0.989821 0
    outer loop
      vertex 58.5371 8.2168 0
      vertex 60.3506 7.95605 4
      vertex 58.5371 8.2168 4
    endloop
  endfacet
  facet normal -0.142317 -0.989821 -0
    outer loop
      vertex 60.3506 7.95605 4
      vertex 58.5371 8.2168 0
      vertex 60.3506 7.95605 0
    endloop
  endfacet
  facet normal -0.65491 -0.755707 0
    outer loop
      vertex 60.3506 7.95605 0
      vertex 61.7344 6.75684 4
      vertex 60.3506 7.95605 4
    endloop
  endfacet
  facet normal -0.65491 -0.755707 -0
    outer loop
      vertex 61.7344 6.75684 4
      vertex 60.3506 7.95605 0
      vertex 61.7344 6.75684 0
    endloop
  endfacet
  facet normal -0.959527 -0.281618 0
    outer loop
      vertex 62.25 5 0
      vertex 61.7344 6.75684 4
      vertex 61.7344 6.75684 0
    endloop
  endfacet
  facet normal -0.959527 -0.281618 0
    outer loop
      vertex 61.7344 6.75684 4
      vertex 62.25 5 0
      vertex 62.25 5 4
    endloop
  endfacet
  facet normal -0.959527 0.281618 0
    outer loop
      vertex 61.7344 3.24316 0
      vertex 62.25 5 4
      vertex 62.25 5 0
    endloop
  endfacet
  facet normal -0.959527 0.281618 0
    outer loop
      vertex 62.25 5 4
      vertex 61.7344 3.24316 0
      vertex 61.7344 3.24316 4
    endloop
  endfacet
  facet normal -0.65491 0.755707 0
    outer loop
      vertex 61.7344 3.24316 0
      vertex 60.3506 2.04395 4
      vertex 61.7344 3.24316 4
    endloop
  endfacet
  facet normal -0.65491 0.755707 0
    outer loop
      vertex 60.3506 2.04395 4
      vertex 61.7344 3.24316 0
      vertex 60.3506 2.04395 0
    endloop
  endfacet
  facet normal -0.142317 0.989821 0
    outer loop
      vertex 60.3506 2.04395 0
      vertex 58.5371 1.7832 4
      vertex 60.3506 2.04395 4
    endloop
  endfacet
  facet normal -0.142317 0.989821 0
    outer loop
      vertex 58.5371 1.7832 4
      vertex 60.3506 2.04395 0
      vertex 58.5371 1.7832 0
    endloop
  endfacet
  facet normal 0.415571 0.909561 -0
    outer loop
      vertex 58.5371 1.7832 0
      vertex 56.8721 2.54395 4
      vertex 58.5371 1.7832 4
    endloop
  endfacet
  facet normal 0.415571 0.909561 0
    outer loop
      vertex 56.8721 2.54395 4
      vertex 58.5371 1.7832 0
      vertex 56.8721 2.54395 0
    endloop
  endfacet
  facet normal -0 0 1
    outer loop
      vertex 97.5732 41.5469 25
      vertex 99.5938 40.3389 25
      vertex 99.2793 41.9854 25
    endloop
  endfacet
  facet normal 0 0 1
    outer loop
      vertex 99.5938 40.3389 25
      vertex 97.5732 41.5469 25
      vertex 97.9814 39.9043 25
    endloop
  endfacet
  facet normal -0 0 1
    outer loop
      vertex 96.0352 40.6875 25
      vertex 97.9814 39.9043 25
      vertex 97.5732 41.5469 25
    endloop
  endfacet
  facet normal 0 0 1
    outer loop
      vertex 97.9814 39.9043 25
      vertex 96.0352 40.6875 25
      vertex 96.5947 38.9727 25
    endloop
  endfacet
  facet normal -0 0 1
    outer loop
      vertex 94.7686 39.4629 25
      vertex 96.5947 38.9727 25
      vertex 96.0352 40.6875 25
    endloop
  endfacet
  facet normal 0 0 1
    outer loop
      vertex 96.5947 38.9727 25
      vertex 94.7686 39.4629 25
      vertex 95.584 37.6426 25
    endloop
  endfacet
  facet normal -0 0 1
    outer loop
      vertex 93.8574 37.9561 25
      vertex 95.584 37.6426 25
      vertex 94.7686 39.4629 25
    endloop
  endfacet
  facet normal 0 0 1
    outer loop
      vertex 95.584 37.6426 25
      vertex 93.8574 37.9561 25
      vertex 95.0566 36.0576 25
    endloop
  endfacet
  facet normal 0 0 1
    outer loop
      vertex 95.0566 36.0576 25
      vertex 93.9141 32.3271 25
      vertex 94.8506 30.8447 25
    endloop
  endfacet
  facet normal -0 0 1
    outer loop
      vertex 93.3613 36.2656 25
      vertex 95.0566 36.0576 25
      vertex 93.8574 37.9561 25
    endloop
  endfacet
  facet normal 0 0 1
    outer loop
      vertex 95.0566 36.0576 25
      vertex 93.3857 34 25
      vertex 93.9141 32.3271 25
    endloop
  endfacet
  facet normal 0 0 1
    outer loop
      vertex 95.0566 36.0576 25
      vertex 93.3613 36.2656 25
      vertex 93.3857 34 25
    endloop
  endfacet
  facet normal 0 0 1
    outer loop
      vertex 88.9062 34 25
      vertex 93.3613 36.2656 25
      vertex 88.9062 36.2656 25
    endloop
  endfacet
  facet normal 0 0 1
    outer loop
      vertex 93.3613 36.2656 25
      vertex 88.9062 34 25
      vertex 93.3857 34 25
    endloop
  endfacet
  facet normal 0 0 1
    outer loop
      vertex 97.6787 28.8203 25
      vertex 99.6689 30.1729 25
      vertex 98.0498 30.584 25
    endloop
  endfacet
  facet normal 0 0 1
    outer loop
      vertex 99.6689 30.1729 25
      vertex 97.6787 28.8203 25
      vertex 99.3848 28.4111 25
    endloop
  endfacet
  facet normal 0 0 1
    outer loop
      vertex 96.1338 29.6494 25
      vertex 98.0498 30.584 25
      vertex 96.6494 31.4961 25
    endloop
  endfacet
  facet normal 0 0 1
    outer loop
      vertex 98.0498 30.584 25
      vertex 96.1338 29.6494 25
      vertex 97.6787 28.8203 25
    endloop
  endfacet
  facet normal 0 0 1
    outer loop
      vertex 94.8506 30.8447 25
      vertex 96.6494 31.4961 25
      vertex 95.6191 32.8105 25
    endloop
  endfacet
  facet normal 0 0 1
    outer loop
      vertex 94.8506 30.8447 25
      vertex 95.6191 32.8105 25
      vertex 95.0684 34.3877 25
    endloop
  endfacet
  facet normal 0 0 1
    outer loop
      vertex 96.6494 31.4961 25
      vertex 94.8506 30.8447 25
      vertex 96.1338 29.6494 25
    endloop
  endfacet
  facet normal 0 0 1
    outer loop
      vertex 94.8506 30.8447 25
      vertex 95.0684 34.3877 25
      vertex 95.0566 36.0576 25
    endloop
  endfacet
  facet normal 0.24611 0.969242 -0
    outer loop
      vertex 99.6689 30.1729 4
      vertex 98.0498 30.584 25
      vertex 99.6689 30.1729 25
    endloop
  endfacet
  facet normal 0.24611 0.969242 0
    outer loop
      vertex 98.0498 30.584 25
      vertex 99.6689 30.1729 4
      vertex 98.0498 30.584 4
    endloop
  endfacet
  facet normal 0.545771 0.837935 -0
    outer loop
      vertex 97.9493 30.6494 0
      vertex 97.5074 30.9373 4
      vertex 97.9493 30.6494 4
    endloop
  endfacet
  facet normal 0.545771 0.837935 0
    outer loop
      vertex 97.5074 30.9373 4
      vertex 97.9493 30.6494 0
      vertex 97.5074 30.9373 0
    endloop
  endfacet
  facet normal 0.545766 0.837938 0
    outer loop
      vertex 97.9493 30.6494 4
      vertex 98.0498 30.584 25
      vertex 98.0498 30.584 4
    endloop
  endfacet
  facet normal 0.545771 0.837935 -3.09907e-08
    outer loop
      vertex 97.5074 30.9373 4
      vertex 98.0498 30.584 25
      vertex 97.9493 30.6494 4
    endloop
  endfacet
  facet normal 0.545769 0.837936 4.57488e-08
    outer loop
      vertex 98.0498 30.584 25
      vertex 97.5074 30.9373 4
      vertex 96.6494 31.4961 25
    endloop
  endfacet
  facet normal 0.545768 0.837936 0
    outer loop
      vertex 96.6494 31.4961 25
      vertex 97.5074 30.9373 4
      vertex 96.6494 31.4961 4
    endloop
  endfacet
  facet normal 0.787051 0.616888 0
    outer loop
      vertex 95.6191 32.8105 25
      vertex 96.1148 32.1782 4
      vertex 95.6191 32.8105 4
    endloop
  endfacet
  facet normal 0.787043 0.616898 0
    outer loop
      vertex 96.1148 32.1782 4
      vertex 96.4993 31.6876 4
      vertex 96.1148 32.1782 0
    endloop
  endfacet
  facet normal 0.787048 0.616891 -1.66762e-07
    outer loop
      vertex 96.6494 31.4961 25
      vertex 96.1148 32.1782 4
      vertex 95.6191 32.8105 25
    endloop
  endfacet
  facet normal 0.787043 0.616898 1.52684e-07
    outer loop
      vertex 96.1148 32.1782 4
      vertex 96.6494 31.4961 25
      vertex 96.4993 31.6876 4
    endloop
  endfacet
  facet normal 0.787052 0.616887 0
    outer loop
      vertex 96.4993 31.6876 4
      vertex 96.6494 31.4961 25
      vertex 96.6494 31.4961 4
    endloop
  endfacet
  facet normal 0.787043 0.616898 0
    outer loop
      vertex 96.1148 32.1782 0
      vertex 96.4993 31.6876 4
      vertex 96.4993 31.6876 0
    endloop
  endfacet
  facet normal 0.944085 0.329703 0
    outer loop
      vertex 95.0684 34.3877 25
      vertex 95.2808 33.7793 4
      vertex 95.0684 34.3877 4
    endloop
  endfacet
  facet normal 0.944086 0.3297 0
    outer loop
      vertex 95.2808 33.7793 4
      vertex 95.4969 33.1607 4
      vertex 95.2808 33.7793 0
    endloop
  endfacet
  facet normal 0.944086 0.329699 1.26577e-07
    outer loop
      vertex 95.6191 32.8105 25
      vertex 95.2808 33.7793 4
      vertex 95.0684 34.3877 25
    endloop
  endfacet
  facet normal 0.944086 0.3297 1.57176e-07
    outer loop
      vertex 95.2808 33.7793 4
      vertex 95.6191 32.8105 25
      vertex 95.4969 33.1607 4
    endloop
  endfacet
  facet normal 0.944089 0.329692 0
    outer loop
      vertex 95.4969 33.1607 4
      vertex 95.6191 32.8105 25
      vertex 95.6191 32.8105 4
    endloop
  endfacet
  facet normal 0.944086 0.3297 0
    outer loop
      vertex 95.2808 33.7793 0
      vertex 95.4969 33.1607 4
      vertex 95.4969 33.1607 0
    endloop
  endfacet
  facet normal 0.999975 0.00701331 0
    outer loop
      vertex 95.0566 36.0576 25
      vertex 95.0602 35.5572 4
      vertex 95.0566 36.0576 4
    endloop
  endfacet
  facet normal 0.999975 0.00701765 0
    outer loop
      vertex 95.0602 35.5572 4
      vertex 95.0648 34.8886 4
      vertex 95.0602 35.5572 0
    endloop
  endfacet
  facet normal 0.999975 0.00701765 -1.03557e-07
    outer loop
      vertex 95.0566 36.0576 25
      vertex 95.0648 34.8886 4
      vertex 95.0602 35.5572 4
    endloop
  endfacet
  facet normal 0.999975 0.00701737 -8.79558e-08
    outer loop
      vertex 95.0684 34.3877 25
      vertex 95.0648 34.8886 4
      vertex 95.0566 36.0576 25
    endloop
  endfacet
  facet normal 0.999975 0.00702106 0
    outer loop
      vertex 95.0648 34.8886 4
      vertex 95.0684 34.3877 25
      vertex 95.0684 34.3877 4
    endloop
  endfacet
  facet normal 0.999975 0.00701765 0
    outer loop
      vertex 95.0602 35.5572 0
      vertex 95.0648 34.8886 4
      vertex 95.0648 34.8886 0
    endloop
  endfacet
  facet normal 0.948857 -0.315707 0
    outer loop
      vertex 95.584 37.6426 25
      vertex 95.4674 37.2922 4
      vertex 95.584 37.6426 4
    endloop
  endfacet
  facet normal 0.94886 -0.315696 0
    outer loop
      vertex 95.4674 37.2922 4
      vertex 95.2588 36.6651 4
      vertex 95.4674 37.2922 0
    endloop
  endfacet
  facet normal 0.94886 -0.315696 -2.02705e-07
    outer loop
      vertex 95.584 37.6426 25
      vertex 95.2588 36.6651 4
      vertex 95.4674 37.2922 4
    endloop
  endfacet
  facet normal 0.948859 -0.315702 7.83755e-08
    outer loop
      vertex 95.0566 36.0576 25
      vertex 95.2588 36.6651 4
      vertex 95.584 37.6426 25
    endloop
  endfacet
  facet normal 0.948858 -0.315704 0
    outer loop
      vertex 95.2588 36.6651 4
      vertex 95.0566 36.0576 25
      vertex 95.0566 36.0576 4
    endloop
  endfacet
  facet normal 0.94886 -0.315696 0
    outer loop
      vertex 95.4674 37.2922 0
      vertex 95.2588 36.6651 4
      vertex 95.2588 36.6651 0
    endloop
  endfacet
  facet normal 0.796199 -0.605035 0
    outer loop
      vertex 96.5947 38.9727 25
      vertex 96.4459 38.7768 4
      vertex 96.5947 38.9727 4
    endloop
  endfacet
  facet normal 0.796194 -0.605041 0
    outer loop
      vertex 96.4459 38.7768 4
      vertex 96.0722 38.285 4
      vertex 96.4459 38.7768 0
    endloop
  endfacet
  facet normal 0.796194 -0.605041 8.3828e-08
    outer loop
      vertex 96.5947 38.9727 25
      vertex 96.0722 38.285 4
      vertex 96.4459 38.7768 4
    endloop
  endfacet
  facet normal 0.796196 -0.605039 -2.93084e-08
    outer loop
      vertex 95.584 37.6426 25
      vertex 96.0722 38.285 4
      vertex 96.5947 38.9727 25
    endloop
  endfacet
  facet normal 0.796196 -0.605038 0
    outer loop
      vertex 96.0722 38.285 4
      vertex 95.584 37.6426 25
      vertex 95.584 37.6426 4
    endloop
  endfacet
  facet normal 0.796194 -0.605041 0
    outer loop
      vertex 96.4459 38.7768 0
      vertex 96.0722 38.285 4
      vertex 96.0722 38.285 0
    endloop
  endfacet
  facet normal 0.557666 -0.830066 0
    outer loop
      vertex 97.4472 39.5454 0
      vertex 97.8816 39.8372 4
      vertex 97.4472 39.5454 4
    endloop
  endfacet
  facet normal 0.557666 -0.830066 0
    outer loop
      vertex 97.8816 39.8372 4
      vertex 97.4472 39.5454 0
      vertex 97.8816 39.8372 0
    endloop
  endfacet
  facet normal 0.557663 -0.830067 0
    outer loop
      vertex 97.4472 39.5454 4
      vertex 96.5947 38.9727 25
      vertex 96.5947 38.9727 4
    endloop
  endfacet
  facet normal 0.557664 -0.830067 6.24371e-08
    outer loop
      vertex 96.5947 38.9727 25
      vertex 97.4472 39.5454 4
      vertex 97.9814 39.9043 25
    endloop
  endfacet
  facet normal 0.557666 -0.830066 8.10686e-09
    outer loop
      vertex 97.8816 39.8372 4
      vertex 97.9814 39.9043 25
      vertex 97.4472 39.5454 4
    endloop
  endfacet
  facet normal 0.557667 -0.830065 0
    outer loop
      vertex 97.9814 39.9043 25
      vertex 97.8816 39.8372 4
      vertex 97.9814 39.9043 4
    endloop
  endfacet
  facet normal 0.260246 -0.965542 0
    outer loop
      vertex 97.9814 39.9043 4
      vertex 99.5938 40.3389 25
      vertex 97.9814 39.9043 25
    endloop
  endfacet
  facet normal 0.260246 -0.965542 0
    outer loop
      vertex 99.5938 40.3389 25
      vertex 97.9814 39.9043 4
      vertex 99.5938 40.3389 4
    endloop
  endfacet
  facet normal 0.982247 0.187594 -0
    outer loop
      vertex 99.5938 40.3389 4
      vertex 99.2793 41.9854 25
      vertex 99.5938 40.3389 25
    endloop
  endfacet
  facet normal 0.982247 0.187594 0
    outer loop
      vertex 99.2793 41.9854 25
      vertex 99.5938 40.3389 4
      vertex 99.2793 41.9854 0
    endloop
  endfacet
  facet normal 0.982247 0.187594 0
    outer loop
      vertex 99.2793 41.9854 0
      vertex 99.5938 40.3389 4
      vertex 99.5938 40.3389 0
    endloop
  endfacet
  facet normal -0.248922 0.968523 -2.41696e-08
    outer loop
      vertex 99.2793 41.9854 25
      vertex 99.182 41.9603 4
      vertex 97.5732 41.5469 25
    endloop
  endfacet
  facet normal -0.248927 0.968522 0
    outer loop
      vertex 99.2793 41.9854 0
      vertex 99.182 41.9603 4
      vertex 99.2793 41.9854 25
    endloop
  endfacet
  facet normal -0.248927 0.968522 0
    outer loop
      vertex 99.182 41.9603 4
      vertex 99.2793 41.9854 0
      vertex 99.182 41.9603 0
    endloop
  endfacet
  facet normal -0.248922 0.968524 0
    outer loop
      vertex 97.5732 41.5469 25
      vertex 99.182 41.9603 4
      vertex 97.5732 41.5469 4
    endloop
  endfacet
  facet normal -0.487759 0.872978 0
    outer loop
      vertex 97.5732 41.5469 4
      vertex 96.0352 40.6875 25
      vertex 97.5732 41.5469 25
    endloop
  endfacet
  facet normal -0.487759 0.872978 0
    outer loop
      vertex 96.0352 40.6875 25
      vertex 97.5732 41.5469 4
      vertex 96.0352 40.6875 4
    endloop
  endfacet
  facet normal -0.695089 0.718924 0
    outer loop
      vertex 96.0352 40.6875 4
      vertex 94.7686 39.4629 25
      vertex 96.0352 40.6875 25
    endloop
  endfacet
  facet normal -0.695089 0.718924 0
    outer loop
      vertex 94.7686 39.4629 25
      vertex 96.0352 40.6875 4
      vertex 94.7686 39.4629 4
    endloop
  endfacet
  facet normal -0.855726 0.517429 0
    outer loop
      vertex 93.8574 37.9561 4
      vertex 94.7686 39.4629 25
      vertex 94.7686 39.4629 4
    endloop
  endfacet
  facet normal -0.855726 0.517429 0
    outer loop
      vertex 94.7686 39.4629 25
      vertex 93.8574 37.9561 4
      vertex 93.8574 37.9561 25
    endloop
  endfacet
  facet normal -0.959533 0.281596 0
    outer loop
      vertex 93.3613 36.2656 4
      vertex 93.8574 37.9561 25
      vertex 93.8574 37.9561 4
    endloop
  endfacet
  facet normal -0.959533 0.281596 0
    outer loop
      vertex 93.8574 37.9561 25
      vertex 93.3613 36.2656 4
      vertex 93.3613 36.2656 25
    endloop
  endfacet
  facet normal 0 1 -0
    outer loop
      vertex 93.3613 36.2656 4
      vertex 88.9062 36.2656 25
      vertex 93.3613 36.2656 25
    endloop
  endfacet
  facet normal 0 1 0
    outer loop
      vertex 88.9062 36.2656 25
      vertex 93.3613 36.2656 4
      vertex 88.9062 36.2656 4
    endloop
  endfacet
  facet normal -1 0 0
    outer loop
      vertex 88.9062 34 4
      vertex 88.9062 36.2656 25
      vertex 88.9062 36.2656 4
    endloop
  endfacet
  facet normal -1 -0 0
    outer loop
      vertex 88.9062 36.2656 25
      vertex 88.9062 34 4
      vertex 88.9062 34 25
    endloop
  endfacet
  facet normal 0 -1 0
    outer loop
      vertex 88.9062 34 4
      vertex 93.3857 34 25
      vertex 88.9062 34 25
    endloop
  endfacet
  facet normal 0 -1 -0
    outer loop
      vertex 93.3857 34 25
      vertex 88.9062 34 4
      vertex 93.3857 34 4
    endloop
  endfacet
  facet normal -0.953574 -0.301158 0
    outer loop
      vertex 93.9141 32.3271 4
      vertex 93.3857 34 25
      vertex 93.3857 34 4
    endloop
  endfacet
  facet normal -0.953574 -0.301158 0
    outer loop
      vertex 93.3857 34 25
      vertex 93.9141 32.3271 4
      vertex 93.9141 32.3271 25
    endloop
  endfacet
  facet normal -0.845423 -0.534098 0
    outer loop
      vertex 94.8506 30.8447 4
      vertex 93.9141 32.3271 25
      vertex 93.9141 32.3271 4
    endloop
  endfacet
  facet normal -0.845423 -0.534098 0
    outer loop
      vertex 93.9141 32.3271 25
      vertex 94.8506 30.8447 4
      vertex 94.8506 30.8447 25
    endloop
  endfacet
  facet normal -0.681604 -0.731722 0
    outer loop
      vertex 94.8506 30.8447 4
      vertex 96.1338 29.6494 25
      vertex 94.8506 30.8447 25
    endloop
  endfacet
  facet normal -0.681604 -0.731722 -0
    outer loop
      vertex 96.1338 29.6494 25
      vertex 94.8506 30.8447 4
      vertex 96.1338 29.6494 4
    endloop
  endfacet
  facet normal -0.47287 -0.881132 0
    outer loop
      vertex 96.1338 29.6494 4
      vertex 97.6787 28.8203 25
      vertex 96.1338 29.6494 25
    endloop
  endfacet
  facet normal -0.47287 -0.881132 -0
    outer loop
      vertex 97.6787 28.8203 25
      vertex 96.1338 29.6494 4
      vertex 97.6787 28.8203 4
    endloop
  endfacet
  facet normal -0.233226 -0.972423 0
    outer loop
      vertex 97.6787 28.8203 4
      vertex 99.3848 28.4111 25
      vertex 97.6787 28.8203 25
    endloop
  endfacet
  facet normal -0.233225 -0.972423 -1.82275e-08
    outer loop
      vertex 99.2544 28.4424 4
      vertex 99.3848 28.4111 25
      vertex 97.6787 28.8203 4
    endloop
  endfacet
  facet normal -0.233228 -0.972422 0
    outer loop
      vertex 99.3848 28.4111 0
      vertex 99.2544 28.4424 4
      vertex 99.2544 28.4424 0
    endloop
  endfacet
  facet normal -0.233228 -0.972422 0
    outer loop
      vertex 99.2544 28.4424 4
      vertex 99.3848 28.4111 0
      vertex 99.3848 28.4111 25
    endloop
  endfacet
  facet normal 0.987238 -0.15925 0
    outer loop
      vertex 99.3848 28.4111 25
      vertex 99.6689 30.1729 4
      vertex 99.6689 30.1729 25
    endloop
  endfacet
  facet normal 0.987238 -0.15925 0
    outer loop
      vertex 99.3848 28.4111 0
      vertex 99.6689 30.1729 4
      vertex 99.3848 28.4111 25
    endloop
  endfacet
  facet normal 0.987238 -0.15925 0
    outer loop
      vertex 99.6689 30.1729 4
      vertex 99.3848 28.4111 0
      vertex 99.6689 30.1729 0
    endloop
  endfacet
  facet normal 1 -0 0
    outer loop
      vertex 30 2 5
      vertex 30 6 0
      vertex 30 6 5
    endloop
  endfacet
  facet normal 1 0 0
    outer loop
      vertex 30 6 0
      vertex 30 2 5
      vertex 30 2 0
    endloop
  endfacet
  facet normal -1 0 0
    outer loop
      vertex 32 2 0
      vertex 32 6 5
      vertex 32 6 0
    endloop
  endfacet
  facet normal -1 -0 0
    outer loop
      vertex 32 6 5
      vertex 32 2 0
      vertex 32 2 5
    endloop
  endfacet
  facet normal 0 -1 0
    outer loop
      vertex 30 6 0
      vertex 32 6 5
      vertex 30 6 5
    endloop
  endfacet
  facet normal 0 -1 -0
    outer loop
      vertex 32 6 5
      vertex 30 6 0
      vertex 32 6 0
    endloop
  endfacet
  facet normal 0 1 -0
    outer loop
      vertex 32 2 0
      vertex 30 2 5
      vertex 32 2 5
    endloop
  endfacet
  facet normal 0 1 0
    outer loop
      vertex 30 2 5
      vertex 32 2 0
      vertex 30 2 0
    endloop
  endfacet
  facet normal 1 -0 0
    outer loop
      vertex 30 64.5 5
      vertex 30 68.5 0
      vertex 30 68.5 5
    endloop
  endfacet
  facet normal 1 0 0
    outer loop
      vertex 30 68.5 0
      vertex 30 64.5 5
      vertex 30 64.5 0
    endloop
  endfacet
  facet normal -1 0 0
    outer loop
      vertex 32 64.5 0
      vertex 32 68.5 5
      vertex 32 68.5 0
    endloop
  endfacet
  facet normal -1 -0 0
    outer loop
      vertex 32 68.5 5
      vertex 32 64.5 0
      vertex 32 64.5 5
    endloop
  endfacet
  facet normal 0 -1 0
    outer loop
      vertex 30 68.5 0
      vertex 32 68.5 5
      vertex 30 68.5 5
    endloop
  endfacet
  facet normal 0 -1 -0
    outer loop
      vertex 32 68.5 5
      vertex 30 68.5 0
      vertex 32 68.5 0
    endloop
  endfacet
  facet normal 0 1 -0
    outer loop
      vertex 32 64.5 0
      vertex 30 64.5 5
      vertex 32 64.5 5
    endloop
  endfacet
  facet normal 0 1 0
    outer loop
      vertex 30 64.5 5
      vertex 32 64.5 0
      vertex 30 64.5 0
    endloop
  endfacet
  facet normal 1 -0 0
    outer loop
      vertex 1.5 2 5
      vertex 1.5 6 0
      vertex 1.5 6 5
    endloop
  endfacet
  facet normal 1 0 0
    outer loop
      vertex 1.5 6 0
      vertex 1.5 2 5
      vertex 1.5 2 0
    endloop
  endfacet
  facet normal -1 0 0
    outer loop
      vertex 3.5 2 0
      vertex 3.5 6 5
      vertex 3.5 6 0
    endloop
  endfacet
  facet normal -1 -0 0
    outer loop
      vertex 3.5 6 5
      vertex 3.5 2 0
      vertex 3.5 2 5
    endloop
  endfacet
  facet normal 0 1 -0
    outer loop
      vertex 3.5 2 0
      vertex 1.5 2 5
      vertex 3.5 2 5
    endloop
  endfacet
  facet normal 0 1 0
    outer loop
      vertex 1.5 2 5
      vertex 3.5 2 0
      vertex 1.5 2 0
    endloop
  endfacet
  facet normal 0 -1 0
    outer loop
      vertex 1.5 6 0
      vertex 3.5 6 5
      vertex 1.5 6 5
    endloop
  endfacet
  facet normal 0 -1 -0
    outer loop
      vertex 3.5 6 5
      vertex 1.5 6 0
      vertex 3.5 6 0
    endloop
  endfacet
  facet normal 1 -0 0
    outer loop
      vertex 1.5 64.5 5
      vertex 1.5 68.5 0
      vertex 1.5 68.5 5
    endloop
  endfacet
  facet normal 1 0 0
    outer loop
      vertex 1.5 68.5 0
      vertex 1.5 64.5 5
      vertex 1.5 64.5 0
    endloop
  endfacet
  facet normal -1 0 0
    outer loop
      vertex 3.5 64.5 0
      vertex 3.5 68.5 5
      vertex 3.5 68.5 0
    endloop
  endfacet
  facet normal -1 -0 0
    outer loop
      vertex 3.5 68.5 5
      vertex 3.5 64.5 0
      vertex 3.5 64.5 5
    endloop
  endfacet
  facet normal 0 1 -0
    outer loop
      vertex 3.5 64.5 0
      vertex 1.5 64.5 5
      vertex 3.5 64.5 5
    endloop
  endfacet
  facet normal 0 1 0
    outer loop
      vertex 1.5 64.5 5
      vertex 3.5 64.5 0
      vertex 1.5 64.5 0
    endloop
  endfacet
  facet normal 0 -1 0
    outer loop
      vertex 1.5 68.5 0
      vertex 3.5 68.5 5
      vertex 1.5 68.5 5
    endloop
  endfacet
  facet normal 0 -1 -0
    outer loop
      vertex 3.5 68.5 5
      vertex 1.5 68.5 0
      vertex 3.5 68.5 0
    endloop
  endfacet
endsolid OpenSCAD_Model
